<?xml version="1.0" encoding="UTF-8"?>
<svg id="Calque_2" data-name="Calque 2" xmlns="http://www.w3.org/2000/svg" viewBox="0 0 42.82 32.18">
  <defs>
    <style>
      .cls-1 {
        fill: #daf0fd;
      }

      .cls-2 {
        stroke: #fff;
      }

      .cls-2, .cls-3 {
        fill: none;
        stroke-miterlimit: 10;
      }

      .cls-3 {
        stroke: #daf0fd;
      }
    </style>
  </defs>
  <g id="MER">
    <path class="cls-1" d="M42.75,16.92c-.49-3.27-2.35-2.89-2.35-2.89,0,0-.49-2.62-1.47-4.91-.98-2.29-3.16-3.06-3.16-3.06,.05-2.01-.82-3.76-.82-3.76-2.67-3.98-5.84-1.58-5.84-1.58,0,0-13.85,7.42-19.53,10.36-5.67,2.95-4.03,11.35-4.74,12.66-.71,1.31-3.16,1.96-3.16,1.96,0,0-3.99,3.22,.32,2.24,4.31-.99,20.51,4.14,20.51,4.14l18.49-10.09s2.24-1.8,1.75-5.07Zm-18.87-7.37c-3.82,2.73-7.31,3.93-7.31,3.93,0,0-4.2,.38-1.53-2.56,0,0,6.65-3.93,7.69-4.04,1.04-.11,4.96-.05,1.15,2.67Z"/>
    <path class="cls-3" d="M23.88,9.55c-3.82,2.73-7.31,3.93-7.31,3.93,0,0-4.2,.38-1.53-2.56,0,0,6.65-3.93,7.69-4.04,1.04-.11,4.96-.05,1.15,2.67Z"/>
    <path class="cls-2" d="M9.33,11.22s11.93,14.91,13.19,20.85"/>
    <path class="cls-2" d="M25.02,2.46s12.38,15.34,13.68,21.46"/>
    <path class="cls-2" d="M26.77,1.73s12.38,15.34,13.68,21.46"/>
  </g>
</svg>