<?xml version="1.0" encoding="UTF-8"?>
<svg id="Calque_2" data-name="Calque 2" xmlns="http://www.w3.org/2000/svg" viewBox="0 0 1041.78 1348.06">
  <defs>
    <style>
      .cls-1 {
        letter-spacing: 0em;
      }

      .cls-2 {
        fill: #daf2ff;
      }

      .cls-2, .cls-3, .cls-4, .cls-5 {
        stroke: #184e77;
        stroke-miterlimit: 10;
      }

      .cls-6 {
        font-family: LeagueSpartan-ExtraBold, 'League Spartan';
        font-size: 48px;
        font-variation-settings: 'wght' 800;
      }

      .cls-6, .cls-7 {
        fill: #e9feff;
      }

      .cls-7 {
        font-family: LeagueSpartan-Thin, 'League Spartan';
        font-size: 21px;
        font-variation-settings: 'wght' 100;
      }

      .cls-8 {
        letter-spacing: 0em;
      }

      .cls-9 {
        letter-spacing: 0em;
      }

      .cls-10 {
        letter-spacing: 0em;
      }

      .cls-11 {
        letter-spacing: -.02em;
      }

      .cls-3, .cls-12, .cls-13, .cls-14 {
        fill: #184e77;
      }

      .cls-4 {
        fill: #1a759f;
      }

      .cls-12 {
        font-family: LeagueSpartan-ExtraLight, 'League Spartan';
        font-variation-settings: 'wght' 200;
      }

      .cls-12, .cls-13, .cls-14 {
        font-size: 23.75px;
      }

      .cls-5 {
        fill: none;
      }

      .cls-13 {
        font-family: MyriadPro-Regular, 'Myriad Pro';
      }

      .cls-15 {
        letter-spacing: 0em;
      }

      .cls-16 {
        letter-spacing: -.05em;
      }

      .cls-17 {
        letter-spacing: -.01em;
      }

      .cls-14 {
        font-family: LeagueSpartan-Light, 'League Spartan';
        font-variation-settings: 'wght' 300;
      }
    </style>
  </defs>
  <g id="Calque_1-2" data-name="Calque 1">
    <g>
      <path class="cls-4" d="M539.53,457.23s-12.53-2.39-12.53,10.14-3.76,792.13-3.76,792.13c-7.22,28.55-31.59,49.22-59.73,51.23-31.39,2.24-61.1-19.22-69.36-51.3,.41-15.36-10.71-25.3-18.55-24.49-7.23,.75-15.27,11-14.04,24.49,6.69,53.43,53.87,91.66,104,87.87,45.09-3.41,83.31-40.12,89-87.87V467.08s0-12.46-15.04-9.84Z"/>
      <path class="cls-4" d="M539.53,509.55s-308.3-24.63-431.12,333.8c0,0,100.26-75.2,225.59,25.07,0,0,206.13-107.78,408.86,0,0,0,74.9-77.7,227.8-25.07,0,0-77.7-329.22-431.12-333.8Z"/>
    </g>
    <g>
      <path class="cls-3" d="M48.27,439.48c-39.93,0-50.2-23.88-47.32-53.89,3.86-5.07,27.89-34.01,48.12,.72,0,0,20.29,30.44,44.55,.34,2.36,55.27-45.35,52.83-45.35,52.83Z"/>
      <path class="cls-2" d="M93.62,386.65c-24.26,30.1-44.55-.34-44.55-.34-20.23-34.73-44.26-5.79-48.12-.72,4.85-50.79,47.32-119.16,47.32-119.16,32.4,56.51,44.27,94.58,45.35,120.22Z"/>
      <path class="cls-5" d="M93.9,386.31c-.09,.12-.18,.23-.28,.34"/>
      <path class="cls-5" d="M.95,385.59c-.36,.46-.54,.72-.54,.72"/>
    </g>
    <text class="cls-7" transform="translate(25.32 419.54)"><tspan x="0" y="0">2012</tspan></text>
    <g>
      <path class="cls-3" d="M146.06,367.26c-39.93,0-50.2-23.88-47.32-53.89,3.86-5.07,27.89-34.01,48.12,.72,0,0,20.29,30.44,44.55,.34,2.36,55.27-45.35,52.83-45.35,52.83Z"/>
      <path class="cls-2" d="M191.41,314.43c-24.26,30.1-44.55-.34-44.55-.34-20.23-34.73-44.26-5.79-48.12-.72,4.85-50.79,47.32-119.16,47.32-119.16,32.4,56.51,44.27,94.58,45.35,120.22Z"/>
      <path class="cls-5" d="M191.69,314.09c-.09,.12-.18,.23-.28,.34"/>
      <path class="cls-5" d="M98.74,313.37c-.36,.46-.54,.72-.54,.72"/>
    </g>
    <text class="cls-7" transform="translate(123.11 347.32)"><tspan x="0" y="0">2013</tspan></text>
    <g>
      <path class="cls-3" d="M249.06,298.53c-39.93,0-50.2-23.88-47.32-53.89,3.86-5.07,27.89-34.01,48.12,.72,0,0,20.29,30.44,44.55,.34,2.36,55.27-45.35,52.83-45.35,52.83Z"/>
      <path class="cls-2" d="M294.41,245.7c-24.26,30.1-44.55-.34-44.55-.34-20.23-34.73-44.26-5.79-48.12-.72,4.85-50.79,47.32-119.16,47.32-119.16,32.4,56.51,44.27,94.58,45.35,120.22Z"/>
      <path class="cls-5" d="M294.69,245.36c-.09,.12-.18,.23-.28,.34"/>
      <path class="cls-5" d="M201.74,244.64c-.36,.46-.54,.72-.54,.72"/>
    </g>
    <text class="cls-7" transform="translate(226.11 278.6)"><tspan x="0" y="0">2014</tspan></text>
    <g>
      <path class="cls-3" d="M343.06,471.53c-39.93,0-50.2-23.88-47.32-53.89,3.86-5.07,27.89-34.01,48.12,.72,0,0,20.29,30.44,44.55,.34,2.36,55.27-45.35,52.83-45.35,52.83Z"/>
      <path class="cls-2" d="M388.41,418.7c-24.26,30.1-44.55-.34-44.55-.34-20.23-34.73-44.26-5.79-48.12-.72,4.85-50.79,47.32-119.16,47.32-119.16,32.4,56.51,44.27,94.58,45.35,120.22Z"/>
      <path class="cls-5" d="M388.69,418.36c-.09,.12-.18,.23-.28,.34"/>
      <path class="cls-5" d="M295.74,417.64c-.36,.46-.54,.72-.54,.72"/>
    </g>
    <text class="cls-7" transform="translate(320.11 451.6)"><tspan x="0" y="0">2015</tspan></text>
    <g>
      <path class="cls-3" d="M396.62,174.03c-39.93,0-50.2-23.88-47.32-53.89,3.86-5.07,27.89-34.01,48.12,.72,0,0,20.29,30.44,44.55,.34,2.36,55.27-45.35,52.83-45.35,52.83Z"/>
      <path class="cls-2" d="M441.97,121.2c-24.26,30.1-44.55-.34-44.55-.34-20.23-34.73-44.26-5.79-48.12-.72C354.15,69.35,396.62,.98,396.62,.98c32.4,56.51,44.27,94.58,45.35,120.22Z"/>
      <path class="cls-5" d="M442.25,120.86c-.09,.12-.18,.23-.28,.34"/>
      <path class="cls-5" d="M349.3,120.14c-.36,.46-.54,.72-.54,.72"/>
    </g>
    <text class="cls-7" transform="translate(373.67 154.09)"><tspan x="0" y="0">2016</tspan></text>
    <g>
      <path class="cls-3" d="M496.75,261.17c-39.93,0-50.2-23.88-47.32-53.89,3.86-5.07,27.89-34.01,48.12,.72,0,0,20.29,30.44,44.55,.34,2.36,55.27-45.35,52.83-45.35,52.83Z"/>
      <path class="cls-2" d="M542.1,208.34c-24.26,30.1-44.55-.34-44.55-.34-20.23-34.73-44.26-5.79-48.12-.72,4.85-50.79,47.32-119.16,47.32-119.16,32.4,56.51,44.27,94.58,45.35,120.22Z"/>
      <path class="cls-5" d="M542.38,208c-.09,.12-.18,.23-.28,.34"/>
      <path class="cls-5" d="M449.43,207.28c-.36,.46-.54,.72-.54,.72"/>
    </g>
    <text class="cls-7" transform="translate(473.8 241.23)"><tspan x="0" y="0">2017</tspan></text>
    <g>
      <path class="cls-3" d="M603.75,310.17c-39.93,0-50.2-23.88-47.32-53.89,3.86-5.07,27.89-34.01,48.12,.72,0,0,20.29,30.44,44.55,.34,2.36,55.27-45.35,52.83-45.35,52.83Z"/>
      <path class="cls-2" d="M649.1,257.34c-24.26,30.1-44.55-.34-44.55-.34-20.23-34.73-44.26-5.79-48.12-.72,4.85-50.79,47.32-119.16,47.32-119.16,32.4,56.51,44.27,94.58,45.35,120.22Z"/>
      <path class="cls-5" d="M649.38,257c-.09,.12-.18,.23-.28,.34"/>
      <path class="cls-5" d="M556.43,256.28c-.36,.46-.54,.72-.54,.72"/>
    </g>
    <text class="cls-7" transform="translate(580.8 290.23)"><tspan x="0" y="0">2018</tspan></text>
    <g>
      <path class="cls-3" d="M709.75,271.17c-39.93,0-50.2-23.88-47.32-53.89,3.86-5.07,27.89-34.01,48.12,.72,0,0,20.29,30.44,44.55,.34,2.36,55.27-45.35,52.83-45.35,52.83Z"/>
      <path class="cls-2" d="M755.1,218.34c-24.26,30.1-44.55-.34-44.55-.34-20.23-34.73-44.26-5.79-48.12-.72,4.85-50.79,47.32-119.16,47.32-119.16,32.4,56.51,44.27,94.58,45.35,120.22Z"/>
      <path class="cls-5" d="M755.38,218c-.09,.12-.18,.23-.28,.34"/>
      <path class="cls-5" d="M662.43,217.28c-.36,.46-.54,.72-.54,.72"/>
    </g>
    <text class="cls-7" transform="translate(686.8 251.23)"><tspan x="0" y="0">2019</tspan></text>
    <g>
      <path class="cls-3" d="M816.75,365.17c-39.93,0-50.2-23.88-47.32-53.89,3.86-5.07,27.89-34.01,48.12,.72,0,0,20.29,30.44,44.55,.34,2.36,55.27-45.35,52.83-45.35,52.83Z"/>
      <path class="cls-2" d="M862.1,312.34c-24.26,30.1-44.55-.34-44.55-.34-20.23-34.73-44.26-5.79-48.12-.72,4.85-50.79,47.32-119.16,47.32-119.16,32.4,56.51,44.27,94.58,45.35,120.22Z"/>
      <path class="cls-5" d="M862.38,312c-.09,.12-.18,.23-.28,.34"/>
      <path class="cls-5" d="M769.43,311.28c-.36,.46-.54,.72-.54,.72"/>
    </g>
    <text class="cls-7" transform="translate(793.8 345.23)"><tspan x="0" y="0">2020</tspan></text>
    <g>
      <path class="cls-3" d="M902.75,225.17c-39.93,0-50.2-23.88-47.32-53.89,3.86-5.07,27.89-34.01,48.12,.72,0,0,20.29,30.44,44.55,.34,2.36,55.27-45.35,52.83-45.35,52.83Z"/>
      <path class="cls-2" d="M948.1,172.34c-24.26,30.1-44.55-.34-44.55-.34-20.23-34.73-44.26-5.79-48.12-.72,4.85-50.79,47.32-119.16,47.32-119.16,32.4,56.51,44.27,94.58,45.35,120.22Z"/>
      <path class="cls-5" d="M948.38,172c-.09,.12-.18,.23-.28,.34"/>
      <path class="cls-5" d="M855.43,171.28c-.36,.46-.54,.72-.54,.72"/>
    </g>
    <text class="cls-7" transform="translate(879.8 205.23)"><tspan x="0" y="0">2021</tspan></text>
    <g>
      <path class="cls-3" d="M995.75,304.13c-39.93,0-50.2-23.88-47.32-53.89,3.86-5.07,27.89-34.01,48.12,.72,0,0,20.29,30.44,44.55,.34,2.36,55.27-45.35,52.83-45.35,52.83Z"/>
      <path class="cls-2" d="M1041.1,251.3c-24.26,30.1-44.55-.34-44.55-.34-20.23-34.73-44.26-5.79-48.12-.72,4.85-50.79,47.32-119.16,47.32-119.16,32.4,56.51,44.27,94.58,45.35,120.22Z"/>
      <path class="cls-5" d="M1041.38,250.96c-.09,.12-.18,.23-.28,.34"/>
      <path class="cls-5" d="M948.43,250.24c-.36,.46-.54,.72-.54,.72"/>
    </g>
    <text class="cls-7" transform="translate(972.8 284.2)"><tspan x="0" y="0">2022</tspan></text>
    <text class="cls-6" transform="translate(249.8 655.34)"><tspan x="0" y="0">Évol</tspan><tspan class="cls-8" x="90.69" y="0">u</tspan><tspan x="117.48" y="0">tion des p</tspan><tspan class="cls-17" x="327.43" y="0">r</tspan><tspan class="cls-9" x="346.77" y="0">é</tspan><tspan class="cls-10" x="371.11" y="0">c</tspan><tspan x="391.67" y="0">ipitations </tspan><tspan x="-25.52" y="57.6">en millimèt</tspan><tspan class="cls-17" x="212.6" y="57.6">r</tspan><tspan x="231.94" y="57.6">es de 2012 à 2022 </tspan><tspan x="163.86" y="115.2">à St</tspan><tspan class="cls-17" x="250.04" y="115.2">r</tspan><tspan class="cls-15" x="269.38" y="115.2">asbou</tspan><tspan class="cls-1" x="397.71" y="115.2">r</tspan><tspan x="417.29" y="115.2">g</tspan></text>
    <text class="cls-12" transform="translate(22.44 344.97)"><tspan x="0" y="0">5</tspan><tspan class="cls-16" x="12.36" y="0">7</tspan><tspan x="23.16" y="0">6,1</tspan></text>
    <text class="cls-14" transform="translate(122.36 275.97)"><tspan x="0" y="0">611,3</tspan></text>
    <text class="cls-14" transform="translate(219.87 203.97)"><tspan x="0" y="0">6</tspan><tspan class="cls-11" x="12.93" y="0">7</tspan><tspan x="24.62" y="0">2,9</tspan></text>
    <text class="cls-13" transform="translate(315.14 378.97)"><tspan x="0" y="0">462,5</tspan></text>
    <text class="cls-14" transform="translate(366.57 78.77)"><tspan x="0" y="0">808,9</tspan></text>
    <text class="cls-14" transform="translate(467.75 173.68)"><tspan x="0" y="0">604,3</tspan></text>
    <text class="cls-14" transform="translate(576.84 218.6)"><tspan x="0" y="0">581,0</tspan></text>
    <text class="cls-14" transform="translate(679.39 180.6)"><tspan x="0" y="0">630,9</tspan></text>
    <text class="cls-14" transform="translate(786.23 275.6)"><tspan x="0" y="0">508,6</tspan></text>
    <text class="cls-14" transform="translate(876.29 137.82)"><tspan x="0" y="0">731,2</tspan></text>
    <text class="cls-14" transform="translate(966.35 218.82)"><tspan x="0" y="0">5</tspan><tspan class="cls-11" x="12.42" y="0">7</tspan><tspan x="24.11" y="0">2,9</tspan></text>
  </g>
</svg>