<svg width="1440" height="922" viewBox="0 0 1440 922" fill="none" xmlns="http://www.w3.org/2000/svg">
<path d="M1149.35 93H1064.63C1052.77 91.5125 1051.39 80.8693 1052.18 75.7336C1054.3 61.4955 1066.66 61.6549 1072.57 63.5144C1073.21 56.9266 1079.72 55.988 1082.9 56.3422C1082.9 46.7793 1086.25 42.8833 1088.46 41.7322C1095.87 37.482 1104.08 41.9978 1106.72 45.1855C1108.93 44.2115 1114.83 42.5823 1120.76 43.8573C1126.69 45.1324 1130.64 52.5348 1131.88 56.0766C1140.77 55.6516 1142.64 62.4519 1142.47 65.9051C1156.5 61.3893 1161 75.2024 1161 78.39C1160.15 90.078 1152.88 93 1149.35 93Z" fill="white"/>
<path d="M388.393 237L324.5 219.922L744.792 485L1334.5 392.223C1282.36 346.983 1354.91 358.375 1183 237C839.919 -5.22617 599.419 121.274 388.393 237Z" fill="url(#paint0_linear_96_2)"/>
<path d="M473.5 176.5C335 41.5 119.667 0.666667 2.5 0H-54L-96 491.5H209.5L1524.5 505C1531.5 395.5 1541.3 173.1 1524.5 159.5C1503.5 142.5 1397.5 95 1230.5 144C1063.5 193 1027.5 324.5 872 349C836.504 354.593 624.952 324.124 473.5 176.5Z" fill="url(#paint1_linear_96_2)"/>
<path d="M360 315.5C217.2 286.3 63.6667 391.5 1 436.5V537.5L1423.5 549H1467H1581.5C1638.67 455.833 1695.8 251.6 1467 180C1181 90.4997 878 375 690 375C619 375 538.5 352 360 315.5Z" fill="url(#paint2_linear_96_2)"/>
<path d="M0.5 558V246C261.5 246 448 437.5 567 460C648.871 475.48 844.796 484.96 979 400C1103 321.5 1328 327.333 1440 340V558H0.5Z" fill="url(#paint3_linear_96_2)"/>
<path d="M685.5 498.521C696.5 477.021 634 459.021 610.5 403.021C591.93 358.768 695.495 336.689 750 331.021L802.5 343.021C770.167 349.021 669.2 368.321 702 401.521C743 443.021 857.963 425.81 868 483.521C876 529.521 812.667 550.021 790.5 558.021H572.5C631.333 546.521 676.7 515.721 685.5 498.521Z" fill="#168AAD"/>
<path d="M607.5 721C581.9 581 568.833 556 579.5 557L792 557C786 627.333 781.3 759.6 756.5 758C725.5 756 746.5 667 738.5 648C732.1 632.8 716.5 629 709.5 629C702.5 629.333 688.7 633.6 689.5 648C690.5 666 674.5 721 660.5 721C646.5 721 647.5 707 648.5 695C649.5 683 622.5 661 621.5 689C620.5 717 613.5 744 607.5 721Z" fill="url(#paint4_linear_96_2)"/>
<path d="M684 792.5C689.624 783.226 696.001 742.5 701.001 744C705.001 741.5 710.718 776.441 716 792.5C722.604 812.574 741.426 839.465 741 870C740.574 900.535 725.888 920.427 699.048 920.993C672.207 921.558 655.065 900.253 654 870C652.935 839.747 676.971 804.092 684 792.5Z" fill="#176087"/>
<defs>
<linearGradient id="paint0_linear_96_2" x1="324.5" y1="291.903" x2="1334.5" y2="291.903" gradientUnits="userSpaceOnUse">
<stop stop-color="#075441"/>
<stop offset="1" stop-color="#12A37E"/>
</linearGradient>
<linearGradient id="paint1_linear_96_2" x1="-96" y1="252.5" x2="1533.78" y2="252.5" gradientUnits="userSpaceOnUse">
<stop stop-color="#007F5F"/>
<stop offset="1" stop-color="#269559"/>
</linearGradient>
<linearGradient id="paint2_linear_96_2" x1="1" y1="355.79" x2="1632.61" y2="355.79" gradientUnits="userSpaceOnUse">
<stop offset="0.453125" stop-color="#2B9348"/>
<stop offset="1" stop-color="#2BAF50"/>
</linearGradient>
<linearGradient id="paint3_linear_96_2" x1="0.5" y1="402" x2="1440" y2="402" gradientUnits="userSpaceOnUse">
<stop offset="0.1875" stop-color="#55A633"/>
<stop offset="1" stop-color="#83D162"/>
</linearGradient>
<linearGradient id="paint4_linear_96_2" x1="699.432" y1="548.978" x2="699.432" y2="758.014" gradientUnits="userSpaceOnUse">
<stop stop-color="#168AAD"/>
<stop offset="1" stop-color="#184E77"/>
</linearGradient>
</defs>
</svg>
