<svg width="94" height="138" viewBox="0 0 94 138" fill="none" xmlns="http://www.w3.org/2000/svg">
<path d="M30.5578 89.5V73C30.5578 68.4667 31.6245 64.6333 33.7578 61.5C35.9578 58.3667 38.9245 55.8333 42.6578 53.9C44.8578 52.7 46.9578 51.3667 48.9578 49.9C50.9578 48.4333 52.5578 46.7667 53.7578 44.9C55.0245 43.0333 55.6578 40.9667 55.6578 38.7C55.6578 35.5 54.7245 33.2 52.8578 31.8C50.9911 30.4 48.1911 29.7 44.4578 29.7C41.5245 29.7 39.0578 30.4333 37.0578 31.9C35.0578 33.3667 33.4578 35.1333 32.2578 37.2C31.0578 39.2667 30.1245 41.2333 29.4578 43.1L0.657812 31.7C0.791146 30.9 1.39115 29.3333 2.45781 27C3.59115 24.6 5.29115 21.9333 7.55781 19C9.89115 16 12.9245 13.1 16.6578 10.3C20.4578 7.49999 24.9911 5.19999 30.2578 3.39999C35.5911 1.53332 41.8245 0.59999 48.9578 0.59999C57.3578 0.59999 64.8911 1.89999 71.5578 4.49999C78.2911 7.1 83.6245 10.8333 87.5578 15.7C91.4911 20.5667 93.4578 26.4 93.4578 33.2C93.4578 39.0667 92.0578 44.1 89.2578 48.3C86.4578 52.5 83.1912 56 79.4578 58.8C75.7912 61.5333 72.6245 63.7 69.9578 65.3C66.4911 67.2333 64.0911 69.5667 62.7578 72.3C61.4911 74.9667 60.8578 78.3 60.8578 82.3V89.5H30.5578ZM46.2578 137.4C40.7245 137.4 35.9911 135.467 32.0578 131.6C28.1911 127.667 26.2578 122.967 26.2578 117.5C26.2578 111.833 28.1911 107.067 32.0578 103.2C35.9911 99.2667 40.7245 97.3 46.2578 97.3C51.7911 97.3 56.5245 99.2667 60.4578 103.2C64.4578 107.067 66.4578 111.833 66.4578 117.5C66.4578 122.967 64.4578 127.667 60.4578 131.6C56.5245 135.467 51.7911 137.4 46.2578 137.4Z" fill="white"/>
</svg>
