<?xml version="1.0" encoding="UTF-8"?>
<svg id="Calque_2" data-name="Calque 2" xmlns="http://www.w3.org/2000/svg" viewBox="0 0 61.56 60.58">
  <defs>
    <style>
      .cls-1 {
        fill: #daf0fd;
      }

      .cls-2 {
        fill: #bad6e4;
      }

      .cls-3 {
        fill: none;
      }
    </style>
  </defs>
  <g id="MER">
    <g>
      <path class="cls-3" d="M41.52,39.55c-2.93,5.07-10.65,6.08-17.27,2.26-6.61-3.82-9.6-11.02-6.68-16.08,2.93-5.06,10.66-6.07,17.27-2.25,6.61,3.81,9.6,11.01,6.68,16.07Z"/>
      <path class="cls-2" d="M41.49,10.34C26.58,1.05,9.13,3.5,2.53,15.81c-6.61,12.33,.15,29.83,15.08,39.13,14.92,9.3,32.36,6.83,38.95-5.49,6.61-12.31-.15-29.83-15.08-39.11Zm4.58,32.57c-4.04,7.54-14.69,9.04-23.82,3.36-9.12-5.68-13.24-16.39-9.21-23.91,4.04-7.53,14.7-9.03,23.82-3.35,9.12,5.67,13.24,16.37,9.21,23.9Z"/>
      <path class="cls-1" d="M43.79,5.06C28.99-3.53,11.89-.92,5.6,10.9c-6.3,11.83,.62,28.37,15.43,36.96,14.81,8.6,31.91,5.96,38.19-5.85,6.3-11.82-.62-28.37-15.43-36.95Zm5.01,30.9c-3.85,7.24-14.29,8.84-23.36,3.58-9.05-5.25-13.27-15.37-9.43-22.59,3.85-7.22,14.31-8.82,23.36-3.57,9.05,5.24,13.27,15.35,9.43,22.58Z"/>
    </g>
  </g>
</svg>