<?xml version="1.0" encoding="UTF-8"?>
<svg id="Calque_2" data-name="Calque 2" xmlns="http://www.w3.org/2000/svg" viewBox="0 0 33.44 16.03">
  <defs>
    <style>
      .cls-1 {
        fill: #daf0fd;
      }
    </style>
  </defs>
  <g id="MER">
    <g>
      <path class="cls-1" d="M33.44,7.69s-1.75-3.27-3.56-3.05-2.55,2.18-2.55,2.18c0,0-1.53-.81-2.18-.66s.51,1.17,.51,1.17c0,0-1.53,1.45-1.16,1.75s2.33-.65,2.33-.65c0,0,2.98,1.38,3.78,1.09l.8-.29s1.45-.44,2.04-1.53Z"/>
      <path class="cls-1" d="M26.1,2.8s-1.27-2.37-2.58-2.22-1.85,1.58-1.85,1.58c0,0-1.11-.59-1.58-.48s.37,.85,.37,.85c0,0-1.11,1.05-.84,1.27s1.69-.47,1.69-.47c0,0,2.16,1,2.74,.79l.58-.21s1.05-.32,1.48-1.11Z"/>
      <path class="cls-1" d="M8.98,3.1s-.98-1.84-2-1.71-1.43,1.22-1.43,1.22c0,0-.86-.45-1.22-.37s.29,.66,.29,.66c0,0-.86,.82-.65,.98s1.31-.37,1.31-.37c0,0,1.67,.78,2.12,.61l.45-.16s.82-.24,1.14-.86Z"/>
      <path class="cls-1" d="M12.09,7.98s-.98-1.84-2-1.71-1.43,1.22-1.43,1.22c0,0-.86-.45-1.22-.37s.29,.66,.29,.66c0,0-.86,.82-.65,.98s1.31-.37,1.31-.37c0,0,1.67,.78,2.12,.61l.45-.16s.82-.24,1.14-.86Z"/>
      <path class="cls-1" d="M15.98,14.1s-1.36-2.55-2.77-2.38-1.98,1.7-1.98,1.7c0,0-1.19-.63-1.7-.51s.4,.91,.4,.91c0,0-1.19,1.13-.91,1.36s1.81-.51,1.81-.51c0,0,2.32,1.07,2.94,.85l.62-.23s1.13-.34,1.58-1.19Z"/>
      <path class="cls-1" d="M22.41,8.64s-1.36-2.55-2.77-2.38-1.98,1.7-1.98,1.7c0,0-1.19-.63-1.7-.51s.4,.91,.4,.91c0,0-1.19,1.13-.91,1.36s1.81-.51,1.81-.51c0,0,2.32,1.07,2.94,.85l.62-.23s1.13-.34,1.58-1.19Z"/>
      <path class="cls-1" d="M25.68,14.59s-1.36-2.55-2.77-2.38-1.98,1.7-1.98,1.7c0,0-1.19-.63-1.7-.51s.4,.91,.4,.91c0,0-1.19,1.13-.91,1.36s1.81-.51,1.81-.51c0,0,2.32,1.07,2.94,.85l.62-.23s1.13-.34,1.58-1.19Z"/>
      <path class="cls-1" d="M3.93,6.83s-.76-1.43-1.55-1.33-1.11,.95-1.11,.95c0,0-.67-.35-.95-.29s.22,.51,.22,.51c0,0-.67,.63-.51,.76s1.02-.29,1.02-.29c0,0,1.3,.6,1.65,.48l.35-.13s.63-.19,.89-.67Z"/>
      <path class="cls-1" d="M17.14,1.72S16.16-.12,15.14,0s-1.43,1.22-1.43,1.22c0,0-.86-.45-1.22-.37s.29,.66,.29,.66c0,0-.86,.82-.65,.98s1.31-.37,1.31-.37c0,0,1.67,.78,2.12,.61l.45-.16s.82-.24,1.14-.86Z"/>
    </g>
  </g>
</svg>