<?xml version="1.0" encoding="UTF-8"?>
<svg id="Calque_2" data-name="Calque 2" xmlns="http://www.w3.org/2000/svg" viewBox="0 0 25.01 23.3">
  <defs>
    <style>
      .cls-1 {
        fill: #daf0fd;
      }

      .cls-2 {
        fill: none;
      }
    </style>
  </defs>
  <g id="MER">
    <g>
      <path class="cls-1" d="M24.32,.27C3.4-1.89,3.62,9.84,3.62,9.84c-1.48,4.31-1.67,6-3.12,9.49-1.44,3.49,.56,3.05,1.9,2.4,.72-.36,1.53-1.44,2.13-2.36-.43,1.22-.58,2.68-.58,2.68,1.34,2.08,2.01,1.2,3.45,0,1.45-1.2,2.34-5.67,2.34-5.67,4.12-1.31,11.41-6.54,11.41-6.54,2.62-2.4,3.33-7.53,3.33-7.53,1.28-2.4-.16-2.04-.16-2.04ZM4.57,18.43c-1.99,1.89-2.88,2.29-2.88,2.29,0,0-.02-.06-.04-.17-.04-.24-.08-.7,.04-1.33,0,0,.54-3.78,2.26-5.27,.38-.33,.71-.47,1-.51,1.04-.13,1.54,1.21,1.54,1.21,0,0,.08,1.89-1.92,3.78Zm1.1,3.59c-.16-2.89,1.64-3.05,1.64-3.05-.27,1.91-1.64,3.05-1.64,3.05Z"/>
      <path class="cls-2" d="M7.31,18.97c-.27,1.91-1.64,3.05-1.64,3.05-.16-2.89,1.64-3.05,1.64-3.05Z"/>
    </g>
  </g>
</svg>