<?xml version="1.0" encoding="utf-8"?>
<!-- Generator: Adobe Illustrator 27.0.1, SVG Export Plug-In . SVG Version: 6.00 Build 0)  -->
<svg version="1.1" id="Calque_1" xmlns="http://www.w3.org/2000/svg" xmlns:xlink="http://www.w3.org/1999/xlink" x="0px" y="0px"
	 viewBox="0 0 1080 608" style="enable-background:new 0 0 1080 608;" xml:space="preserve">
<style type="text/css">
	.st0{fill:#1A759F;}
	.st1{fill:none;}
	.st2{fill:#195C7C;}
	.st3{fill:#1D75A0;}
	.st4{fill:#124862;}
	.st5{fill:#073448;}
	.st6{fill:none;stroke:#1D75A0;stroke-width:10;stroke-miterlimit:10;}
	.st7{fill:#174F78;stroke:#1D75A0;stroke-width:3;stroke-miterlimit:10;}
	.st8{fill:#DAF2FF;}
</style>
<rect x="80.5" y="271" class="st0" width="111" height="272"/>
<rect x="248" y="289" class="st0" width="111" height="254"/>
<rect x="415.5" y="313" class="st0" width="111" height="230"/>
<rect x="583" y="350" class="st0" width="111" height="193"/>
<rect x="750.5" y="367" class="st0" width="111" height="176"/>
<rect x="918" y="343" class="st0" width="111" height="200"/>
<g>
	<g>
		<path class="st1" d="M300.3,252.82c-0.81,12.18-11.02,21.78-23.44,21.61c-12.46-0.17-22.66-10.33-22.86-22.79
			c-0.1-5.81,1.95-11.15,5.4-15.26v3.43c-2.23,3.39-3.49,7.47-3.41,11.85c0.22,11.39,9.68,20.59,21.07,20.5
			c10.94-0.09,19.88-8.58,20.67-19.34H300.3z"/>
		<path class="st0" d="M276.92,230.44c-7.32,0-13.76,3.76-17.49,9.46c-2.16,3.29-3.41,7.22-3.41,11.44c0,11.54,9.36,20.9,20.9,20.9
			c11.02,0,20.05-8.53,20.85-19.34c0.04-0.52,0.06-1.04,0.06-1.56C297.82,239.8,288.46,230.44,276.92,230.44z M277.35,262.37
			c-5.51,0-10.06-4.13-10.72-9.46c-0.06-0.44-0.09-0.89-0.09-1.34c0-2.18,0.65-4.21,1.76-5.92c1.93-2.94,5.26-4.89,9.04-4.89
			c5.97,0,10.81,4.84,10.81,10.8c0,0.27-0.01,0.54-0.03,0.81c-0.01,0.18-0.03,0.36-0.05,0.53
			C287.41,258.24,282.86,262.37,277.35,262.37z"/>
		<path class="st0" d="M276.92,230.44c-7.32,0-13.76,3.76-17.49,9.46c-2.16,3.29-3.41,7.22-3.41,11.44c0,11.54,9.36,20.9,20.9,20.9
			c11.02,0,20.05-8.53,20.85-19.34c0.04-0.52,0.06-1.04,0.06-1.56C297.82,239.8,288.46,230.44,276.92,230.44z M277.35,262.37
			c-5.51,0-10.06-4.13-10.72-9.46c-0.06-0.44-0.09-0.89-0.09-1.34c0-2.18,0.65-4.21,1.76-5.92c1.93-2.94,5.26-4.89,9.04-4.89
			c5.97,0,10.81,4.84,10.81,10.8c0,0.27-0.01,0.54-0.03,0.81c-0.01,0.18-0.03,0.36-0.05,0.53
			C287.41,258.24,282.86,262.37,277.35,262.37z"/>
		<path class="st0" d="M337.36,245.48c-2.13-1.25-4.61-1.96-7.25-1.96c-6.18,0-11.45,3.9-13.48,9.39c-0.57,1.55-0.88,3.23-0.88,4.98
			c0,7.93,6.43,14.36,14.36,14.36c7.93,0,14.36-6.43,14.36-14.36C344.47,252.59,341.61,247.97,337.36,245.48z M339.04,258.44
			c-0.36,4.82-4.38,8.62-9.29,8.62c-5.14,0-9.31-4.17-9.31-9.31c0-1.77,0.49-3.43,1.36-4.84c0.05-0.09,0.11-0.17,0.16-0.26
			c1.66-2.54,4.53-4.21,7.79-4.21c3.14,0,5.92,1.56,7.61,3.94c1.08,1.52,1.71,3.37,1.71,5.37
			C339.06,257.98,339.05,258.21,339.04,258.44z"/>
		<path class="st1" d="M300.36,251.25c0,0.53-0.02,1.05-0.05,1.56h-2.56c0.07-0.98,0.08-1.96,0.01-2.98
			c-0.75-10.71-9.6-19.22-20.33-19.48c-7.54-0.19-14.2,3.62-18.02,9.45v-3.43c4.25-5.08,10.64-8.3,17.78-8.3
			C289.98,228.07,300.36,238.45,300.36,251.25z"/>
		<path class="st0" d="M297.75,249.84c0.07,1.02,0.06,2-0.01,2.98h-9.7c0.02-0.18,0.04-0.35,0.05-0.53
			c0.02-0.27,0.03-0.54,0.03-0.81c0-5.97-4.84-10.8-10.81-10.8c-3.78,0-7.11,1.95-9.04,4.89c-1.12,1.7-1.76,3.73-1.76,5.92
			c0,0.46,0.03,0.9,0.09,1.34h-7.2v-13.01c3.82-5.83,10.48-9.64,18.02-9.45C288.15,230.62,297,239.13,297.75,249.84z"/>
		<path class="st0" d="M337.33,224.09v18.46c-2.24-1.08-4.74-1.68-7.39-1.68c-7.64,0-14.11,5.02-16.28,11.94H300.3
			c0.04-0.52,0.05-1.04,0.05-1.56c0-12.8-10.38-23.18-23.18-23.18c-7.14,0-13.52,3.23-17.78,8.3v-12.29H337.33z"/>
		<path class="st0" d="M337.33,245.39v6.89c-1.69-2.38-4.47-3.94-7.61-3.94c-3.26,0-6.13,1.68-7.79,4.21
			c-0.05,0.09-0.11,0.17-0.16,0.26h-5.17c2.02-5.48,7.29-9.39,13.48-9.39C332.72,243.43,335.2,244.15,337.33,245.39z"/>
		<path class="st1" d="M347,257.94c0,9.69-8.08,17.49-17.86,17.05c-8.81-0.4-15.93-7.6-16.25-16.41c-0.07-2.01,0.2-3.95,0.77-5.75
			h2.95c-0.63,1.71-0.95,3.58-0.87,5.53c0.28,7.47,6.38,13.54,13.85,13.8c8.16,0.28,14.86-6.26,14.86-14.35
			c0-5.29-2.86-9.91-7.11-12.4v-2.84C343.05,245.31,347,251.16,347,257.94z"/>
		<path class="st1" d="M337.33,242.56v2.84c-2.13-1.25-4.61-1.96-7.25-1.96c-6.18,0-11.45,3.9-13.48,9.39h-2.95
			c2.17-6.93,8.64-11.94,16.28-11.94C332.59,240.87,335.09,241.47,337.33,242.56z"/>
		<path class="st0" d="M337.36,245.48c-2.13-1.25-4.61-1.96-7.25-1.96c-6.18,0-11.45,3.9-13.48,9.39c-0.57,1.55-0.88,3.23-0.88,4.98
			c0,7.93,6.43,14.36,14.36,14.36c7.93,0,14.36-6.43,14.36-14.36C344.47,252.59,341.61,247.97,337.36,245.48z M339.04,258.44
			c-0.36,4.82-4.38,8.62-9.29,8.62c-5.14,0-9.31-4.17-9.31-9.31c0-1.77,0.49-3.43,1.36-4.84c0.05-0.09,0.11-0.17,0.16-0.26
			c1.66-2.54,4.53-4.21,7.79-4.21c3.14,0,5.92,1.56,7.61,3.94c1.08,1.52,1.71,3.37,1.71,5.37
			C339.06,257.98,339.05,258.21,339.04,258.44z"/>
		<path class="st1" d="M288.15,251.56c0,0.27-0.01,0.54-0.03,0.81c-0.01,0.18-0.03,0.36-0.05,0.53c-0.66,5.33-5.21,9.46-10.72,9.46
			c-5.51,0-10.06-4.13-10.72-9.46c-0.06-0.44-0.09-0.89-0.09-1.34c0-2.18,0.65-4.21,1.76-5.92c1.93-2.94,5.26-4.89,9.04-4.89
			C283.32,240.76,288.15,245.59,288.15,251.56z"/>
		<path class="st1" d="M339.04,257.66c0,0.24-0.01,0.47-0.03,0.7c-0.36,4.82-4.38,8.62-9.29,8.62c-5.14,0-9.31-4.17-9.31-9.31
			c0-1.77,0.49-3.43,1.36-4.84h15.56v-0.53C338.41,253.8,339.04,255.66,339.04,257.66z"/>
		<path class="st1" d="M337.33,252.29v0.53h-15.56c0.05-0.09,0.11-0.17,0.16-0.26c1.66-2.54,4.53-4.21,7.79-4.21
			C332.87,248.35,335.64,249.9,337.33,252.29z"/>
		<rect x="284.72" y="209.59" class="st0" width="3.41" height="14.5"/>
		<rect x="263.1" y="205.61" class="st0" width="35.55" height="4.27"/>
		<rect x="312.59" y="212.15" class="st0" width="5.97" height="12.23"/>
		<rect x="314.29" y="207.31" class="st0" width="2.56" height="5.12"/>
		
			<rect x="294.16" y="208.97" transform="matrix(0.9855 -0.1697 0.1697 0.9855 -32.5877 53.3606)" class="st0" width="3.41" height="16.69"/>
		
			<rect x="257.42" y="214.67" transform="matrix(0.1879 -0.9822 0.9822 0.1879 3.3085 436.761)" class="st0" width="16.69" height="3.41"/>
	</g>
</g>
<g>
	<path class="st0" d="M133.07,160.66h-23.85c0,0-10.6-0.76-10.98,10.98v11.11c-5.08,0.28-15.49,2.23-15.33,17.28l35.01,0.19
		c0,0,0.76-16.67-14.76-17.53v-11.05c0,0,0.95-4.73,6.06-6.06h23.85c5.3,1.51,4.92,7.19,4.92,7.19v78.17h4.92v-78.17
		C143.29,160.66,133.07,160.66,133.07,160.66z"/>
	<path class="st0" d="M87.05,210.44h-0.69c-0.33,0-0.6-0.27-0.6-0.6v-6.56c0-0.33,0.27-0.6,0.6-0.6h0.69c0.33,0,0.6,0.27,0.6,0.6
		v6.56C87.65,210.17,87.38,210.44,87.05,210.44z"/>
	<path class="st0" d="M113.63,210.44h-0.86c-0.28,0-0.51-0.23-0.51-0.51v-6.73c0-0.28,0.23-0.51,0.51-0.51h0.86
		c0.28,0,0.51,0.23,0.51,0.51v6.73C114.14,210.21,113.91,210.44,113.63,210.44z"/>
	<path class="st0" d="M100.38,210.44h-0.86c-0.29,0-0.52-0.23-0.52-0.52v-6.72c0-0.29,0.23-0.52,0.52-0.52h0.86
		c0.29,0,0.52,0.23,0.52,0.52v6.72C100.89,210.21,100.66,210.44,100.38,210.44z"/>
	<path class="st0" d="M93,220.66h-0.87c-0.28,0-0.51-0.23-0.51-0.51v-6.74c0-0.28,0.23-0.51,0.51-0.51H93
		c0.28,0,0.51,0.23,0.51,0.51v6.74C93.51,220.43,93.28,220.66,93,220.66z"/>
	<path class="st0" d="M106.89,220.66h-1.01c-0.24,0-0.44-0.2-0.44-0.44v-6.87c0-0.24,0.2-0.44,0.44-0.44h1.01
		c0.24,0,0.44,0.2,0.44,0.44v6.87C107.33,220.46,107.13,220.66,106.89,220.66z"/>
</g>
<g>
	<g id="mine_00000055673972079365718290000016792682997153819040_">
		<g>
			<polygon class="st2" points="835.78,344.98 852.1,345.71 854,337.69 845.9,332.2 850.58,319.57 851.38,314.4 846.53,312.42 
				843.83,306.54 843.67,303.99 836.83,301.93 834.05,295.89 834.53,285.09 833.66,282.46 825.39,283.1 821.82,277.93 810.7,274.2 
				808.71,274.76 799.49,285.48 797.66,284.21 789.96,284.53 787.65,288.34 777.72,293.66 776.05,295.57 775.33,303.05 
				769.69,310.37 770.01,319.17 766.59,322.75 768.26,333.71 767.78,334.51 765.96,337.93 760.4,342.93 761.11,344.6 765.17,347.7 
				777.4,347.7 779.47,348.73 790.67,348.17 788.61,334.91 825,329.5 			"/>
			<polygon class="st3" points="791.96,297.98 833.56,300.17 833.56,307.55 828.17,306.88 841.55,349 832.57,349 821.81,307.22 
				801.42,305.87 790.66,349 779.89,349 794.9,306.38 791.63,306.04 			"/>
			<polyline class="st2" points="790.68,346.4 832.31,346.4 821.7,306.83 801.6,305.56 790.99,347.19 			"/>
			<path class="st4" d="M832.31,346.4h-33.21c0,0-3.47-37.08,23.77-35.62L832.31,346.4z"/>
			<path class="st5" d="M832.31,346.4h-23.87c0,0-2.49-26.65,17.09-25.61L832.31,346.4L832.31,346.4z"/>
		</g>
	</g>
</g>
<g>
	<g id="pêche_00000107568738059571932410000011599763394572211115_">
		<g>
			<path class="st3" d="M599.11,336.24c0,0-2.35,0.28-2.07-2.54s3.67-31.81,18.54-50.17c14.88-18.35,33.88-26.63,51.11-27.2
				c0,0,5.46,0.28,0,1.98c-5.46,1.7-29.84,2.92-49.6,27.01c0,0-16.75,27.39-15.25,47.62C601.84,332.94,601.59,335.67,599.11,336.24
				L599.11,336.24z"/>
			<rect x="666.8" y="256.51" class="st3" width="1.56" height="35.79"/>
			<path class="st3" d="M668.01,291.72l-1.98-2.77c0,0-10.82,12.93-1.41,39.57c0,0-1.88,4.8-4.99,7.15c0,0,7.44,2.35,8.38-2.45
				c0,0,4.08,4.06,8.09,3.02c0,0-4.33-3.3-4.43-7.73s9.51-15.79-1.41-39.57L668.01,291.72L668.01,291.72z"/>
			<path class="st3" d="M679.35,316.28c0,0,2.16-7.25-4.01-9.41l-0.79,8.29C674.55,315.15,677.74,317.22,679.35,316.28z"/>
			<path class="st3" d="M656.96,316.28c0,0-2.31-7.25,4.29-9.41l0.86,8.29C662.1,315.15,658.67,317.22,656.96,316.28z"/>
			<circle class="st3" cx="606.73" cy="310.3" r="8.24"/>
			<path class="st6" d="M608.16,309.33c0,0-0.61,5.38,1.56,6.04c2.16,0.65,5.71-0.28,5.71-0.28S608.16,309.33,608.16,309.33z"/>
		</g>
	</g>
</g>
<g>
	<g id="MER_00000132795960247551476740000013941845453792930990_">
		<polygon class="st7" points="449.44,221.31 449.44,231.84 436.33,282.5 477.62,282.5 502.98,282.5 502.98,232.29 502.98,220.26 
			502.98,215.66 445.69,215.66 445.69,220.12 		"/>
		<rect x="456.26" y="223.5" class="st7" width="3.41" height="4.77"/>
		<rect x="465.12" y="223.5" class="st7" width="3.41" height="4.77"/>
		<rect x="474.67" y="223.5" class="st7" width="3.41" height="4.77"/>
		<rect x="483.54" y="223.5" class="st7" width="3.41" height="4.77"/>
		<rect x="492.75" y="223.5" class="st7" width="3.41" height="4.77"/>
		<path class="st7" d="M483.69,239.53h-9.08c0,0-3.35,2.38-6.18,12.8c-2.83,10.42-7.74,28.57-7.74,28.57l8.87,0.6l8.32-29.17
			C477.89,252.33,481.23,241.02,483.69,239.53z"/>
		<path class="st7" d="M474.61,239.53h-9.08c0,0-3.35,2.38-6.18,12.8c-2.83,10.42-7.74,28.57-7.74,28.57l8.87,0.6l8.32-29.17
			C468.81,252.33,472.16,241.02,474.61,239.53z"/>
		<path class="st7" d="M465.16,239.53h-9.08c0,0-3.35,2.38-6.18,12.8c-2.83,10.42-7.74,28.57-7.74,28.57l8.87,0.6l8.32-29.17
			C459.36,252.33,462.71,241.02,465.16,239.53z"/>
		<path class="st7" d="M492.92,239.53h-9.08c0,0-3.35,2.38-6.18,12.8c-2.83,10.42-7.74,28.57-7.74,28.57l8.87,0.6l8.32-29.17
			C487.11,252.33,490.46,241.02,492.92,239.53z"/>
		<path class="st7" d="M429.74,297.5H504v-19.8c0,0-6.15,5.49-12.13,0.39c-5.98-5.1-11.65,0.39-11.65,0.39s-5.82,5.29-10.75,0
			c-4.92-5.29-12.71-0.78-12.71-0.78s-7.12,5.88-12.46,0.19c-5.34-5.68-8.74-0.78-10.98-0.19c-2.24,0.59-2.94,9.02-2.94,9.02
			L429.74,297.5L429.74,297.5z"/>
	</g>
</g>
<g>
	<g id="arrosoir_00000043422483485758706780000008843879942571557554_">
		<g>
			<path class="st3" d="M1010.35,278.2c-6.11-12.95-17.16-8.15-17.16-8.15l-0.15-4.8c3.35-2.18,0-3.05,0-3.05s-43.64-0.29-47.27,0
				c-3.64,0.29,0,3.93,0,3.93l-1.46,23.27l-25.89-14.25c-0.58-5.1-1.16-10.04-1.16-10.04c1.16-2.91-1.02-1.31-1.02-1.31L902.42,283
				c-1.16,4.65,1.46,1.45,1.46,1.45c6.25-2.9,10.47-2.32,10.47-2.32s20.51,16.43,24.58,19.92c4.07,3.5,4.07,5.68,4.07,5.68v11.92
				c-3.63,1.75,0,3.35,0,3.35h52.51c3.49-1.16,0.15-3.49,0.15-3.49l-0.73-14.11l7.27-6.84l5.68-5.97
				C1013.55,286.61,1010.35,278.2,1010.35,278.2z M1003.29,292.25l-8.72,8.01l-1.02-26.33c0,0,8.73-4.65,13.38,5.53
				C1006.93,279.46,1011,284.81,1003.29,292.25z"/>
			<path class="st1" d="M1003.29,292.25l-8.72,8.01l-1.02-26.33c0,0,8.73-4.65,13.38,5.53
				C1006.93,279.46,1011,284.81,1003.29,292.25z"/>
		</g>
	</g>
</g>
<g>
	<g>
		<path class="st8" d="M114.84,517.36l0.04,5.85l-19.76,7.1l-0.04-5.9l13.05-4.08l-13.1-3.94L95,510.51L114.84,517.36z"/>
		<path class="st8" d="M100.57,505.56c0.01,0.81-0.28,1.5-0.84,2.07s-1.24,0.85-2.03,0.86c-0.79,0-1.48-0.27-2.06-0.83
			s-0.88-1.25-0.88-2.06c0-0.53,0.13-1.02,0.39-1.46c0.26-0.44,0.61-0.8,1.05-1.07c0.44-0.27,0.93-0.41,1.47-0.41
			c0.79,0,1.47,0.28,2.05,0.85C100.27,504.07,100.56,504.76,100.57,505.56z M114.79,508.18l-12.31,0.08l-0.03-5.29l12.31-0.08
			L114.79,508.18z"/>
		<path class="st8" d="M109.63,495.69c0.33-0.04,0.62-0.18,0.86-0.4c0.24-0.23,0.43-0.53,0.56-0.9c0.13-0.38,0.2-0.81,0.19-1.31
			c0-0.51-0.04-0.98-0.12-1.42c-0.08-0.44-0.19-0.83-0.32-1.18c-0.14-0.34-0.28-0.62-0.43-0.83l3.3-1.97
			c0.18,0.21,0.38,0.54,0.59,0.98s0.4,1.05,0.55,1.81c0.16,0.76,0.24,1.74,0.24,2.93c0.01,1.38-0.23,2.62-0.71,3.72
			c-0.48,1.1-1.22,1.97-2.2,2.62c-0.98,0.64-2.21,0.97-3.69,0.98c-1.2,0.01-2.28-0.25-3.25-0.78c-0.97-0.53-1.74-1.3-2.31-2.32
			c-0.57-1.02-0.86-2.25-0.87-3.7c-0.01-1.39,0.23-2.6,0.71-3.62c0.48-1.02,1.21-1.81,2.18-2.37c0.98-0.56,2.22-0.84,3.72-0.85
			c0.08,0,0.24,0,0.47,0c0.24,0,0.39,0.02,0.47,0.04L109.63,495.69z M107.2,492.08c-0.33,0.01-0.62,0.09-0.88,0.22
			c-0.26,0.14-0.46,0.33-0.61,0.57c-0.15,0.25-0.22,0.55-0.22,0.92c0,0.35,0.07,0.66,0.21,0.93c0.14,0.27,0.34,0.48,0.6,0.63
			c0.26,0.15,0.57,0.23,0.93,0.24L107.2,492.08z"/>
		<path class="st8" d="M114.92,471.52c0.01,1.22-0.29,2.27-0.88,3.14c-0.59,0.87-1.39,1.55-2.37,2.03
			c-0.99,0.48-2.06,0.72-3.22,0.73c-1.16,0.01-2.24-0.22-3.23-0.69c-0.99-0.47-1.79-1.14-2.4-2c-0.61-0.87-0.92-1.91-0.93-3.13
			c0-0.74,0.1-1.4,0.31-1.98c0.21-0.58,0.47-1.05,0.77-1.42c0.3-0.37,0.59-0.6,0.86-0.7l-9.93,0.06l-0.03-5.29l20.64-0.13l0.03,5.25
			l-1.85,0.01c0.39,0.23,0.76,0.55,1.09,0.98c0.34,0.42,0.61,0.91,0.82,1.45C114.81,470.37,114.92,470.93,114.92,471.52z
			 M110.79,469.85c0-0.47-0.11-0.88-0.32-1.24c-0.21-0.36-0.5-0.64-0.87-0.84c-0.37-0.2-0.77-0.3-1.21-0.3
			c-0.44,0-0.84,0.11-1.21,0.31c-0.36,0.21-0.65,0.49-0.87,0.85c-0.21,0.36-0.32,0.78-0.31,1.25c0,0.45,0.11,0.85,0.33,1.21
			c0.22,0.36,0.51,0.64,0.88,0.84c0.37,0.2,0.77,0.3,1.21,0.3s0.84-0.11,1.21-0.31s0.65-0.49,0.86-0.85
			C110.69,470.71,110.79,470.3,110.79,469.85z"/>
		<path class="st8" d="M109.38,455.21c0.33-0.04,0.62-0.18,0.86-0.4c0.24-0.23,0.43-0.53,0.56-0.9c0.13-0.38,0.2-0.81,0.19-1.31
			c0-0.51-0.04-0.98-0.12-1.42c-0.08-0.44-0.19-0.83-0.32-1.18c-0.14-0.34-0.28-0.62-0.43-0.83l3.3-1.97
			c0.18,0.21,0.38,0.54,0.59,0.98c0.21,0.44,0.4,1.05,0.55,1.81c0.16,0.76,0.24,1.74,0.24,2.93c0.01,1.38-0.23,2.62-0.71,3.72
			c-0.48,1.1-1.22,1.97-2.2,2.62c-0.98,0.64-2.21,0.97-3.69,0.98c-1.2,0.01-2.28-0.25-3.25-0.78c-0.97-0.53-1.74-1.3-2.31-2.32
			c-0.57-1.02-0.86-2.25-0.87-3.7c-0.01-1.39,0.23-2.6,0.71-3.62c0.48-1.02,1.21-1.81,2.18-2.37c0.98-0.55,2.22-0.84,3.72-0.85
			c0.08,0,0.24,0,0.47,0.01c0.24,0,0.39,0.01,0.47,0.03L109.38,455.21z M106.96,451.59c-0.33,0.01-0.62,0.09-0.88,0.22
			c-0.26,0.14-0.46,0.33-0.61,0.57c-0.15,0.25-0.22,0.55-0.22,0.92c0,0.35,0.07,0.66,0.21,0.93c0.14,0.27,0.34,0.48,0.6,0.63
			c0.26,0.15,0.57,0.23,0.93,0.24L106.96,451.59z"/>
		<path class="st8" d="M102.04,437.39l-0.01-1.98l-5.06,0.03l-0.03-5.25l5.06-0.03l-0.02-2.61l4.33-0.03l0.02,2.61l2.4-0.01
			c0.43,0,0.8-0.06,1.1-0.18c0.3-0.12,0.46-0.37,0.45-0.75c0-0.23-0.06-0.43-0.16-0.61c-0.11-0.18-0.18-0.29-0.22-0.33l3.74-1.79
			c0.06,0.08,0.17,0.32,0.34,0.72c0.17,0.4,0.32,0.91,0.47,1.53c0.14,0.61,0.22,1.3,0.22,2.05c0.01,1.33-0.35,2.43-1.08,3.29
			c-0.73,0.86-1.86,1.3-3.39,1.31l-3.84,0.02l0.01,1.98L102.04,437.39z"/>
		<path class="st8" d="M114.6,418.5c0.01,1.38-0.26,2.61-0.8,3.68c-0.54,1.07-1.3,1.92-2.27,2.53c-0.97,0.62-2.09,0.93-3.36,0.94
			c-1.27,0.01-2.4-0.29-3.39-0.89c-0.99-0.6-1.77-1.44-2.34-2.51c-0.57-1.07-0.86-2.29-0.87-3.67c-0.01-1.37,0.27-2.58,0.82-3.64
			c0.56-1.06,1.33-1.89,2.31-2.49c0.98-0.6,2.11-0.91,3.38-0.91c1.27-0.01,2.39,0.28,3.37,0.87c0.98,0.59,1.75,1.41,2.3,2.46
			C114.31,415.92,114.59,417.13,114.6,418.5z M110.26,418.53c0-0.41-0.09-0.76-0.27-1.06c-0.18-0.3-0.43-0.53-0.76-0.69
			c-0.33-0.16-0.72-0.24-1.16-0.23c-0.43,0-0.81,0.08-1.14,0.25s-0.58,0.39-0.77,0.69c-0.18,0.3-0.27,0.66-0.27,1.07
			c0,0.42,0.1,0.78,0.28,1.08c0.19,0.3,0.45,0.53,0.78,0.7c0.33,0.17,0.71,0.25,1.14,0.25c0.44,0,0.82-0.09,1.15-0.26
			c0.33-0.17,0.58-0.41,0.75-0.71C110.18,419.31,110.27,418.95,110.26,418.53z"/>
		<path class="st8" d="M107.34,404.36c0.86-0.01,1.55-0.16,2.06-0.46c0.51-0.3,0.77-0.84,0.76-1.61c0-0.78-0.27-1.32-0.78-1.62
			s-1.21-0.44-2.07-0.44l-5.5,0.03l-0.03-5.22l6.04-0.04c1.36-0.01,2.54,0.27,3.54,0.83s1.77,1.39,2.31,2.47
			c0.54,1.08,0.82,2.4,0.83,3.95c0.01,1.54-0.25,2.85-0.78,3.94s-1.29,1.92-2.28,2.5c-0.99,0.58-2.17,0.88-3.53,0.88l-6.04,0.04
			l-0.03-5.22L107.34,404.36z"/>
		<path class="st8" d="M101.37,386.68c0-0.86,0.06-1.65,0.2-2.36s0.28-1.31,0.45-1.79c0.16-0.48,0.29-0.77,0.38-0.9l3.1,1.65
			c-0.13,0.18-0.3,0.53-0.51,1.05c-0.21,0.52-0.32,1.08-0.31,1.7c0,0.41,0.05,0.75,0.15,1.01c0.1,0.26,0.26,0.4,0.49,0.39
			c0.22,0,0.4-0.16,0.54-0.47c0.14-0.31,0.27-0.78,0.37-1.41c0.11-0.57,0.29-1.17,0.54-1.8c0.25-0.63,0.63-1.17,1.15-1.61
			c0.51-0.44,1.2-0.66,2.06-0.67c0.92,0,1.67,0.19,2.25,0.59c0.58,0.4,1.03,0.92,1.34,1.56c0.32,0.64,0.54,1.34,0.67,2.08
			c0.12,0.75,0.19,1.46,0.19,2.14c0.01,1-0.08,1.87-0.25,2.6c-0.17,0.73-0.36,1.31-0.58,1.75s-0.39,0.74-0.5,0.9l-3.45-1.61
			c0.21-0.26,0.45-0.69,0.71-1.27c0.27-0.59,0.4-1.19,0.39-1.83c0-0.56-0.07-0.98-0.19-1.27c-0.13-0.28-0.3-0.42-0.52-0.42
			c-0.17,0-0.31,0.07-0.42,0.21s-0.21,0.35-0.3,0.62c-0.09,0.27-0.17,0.61-0.25,1.02c-0.07,0.37-0.18,0.78-0.34,1.23
			c-0.16,0.45-0.39,0.88-0.69,1.29c-0.3,0.41-0.68,0.74-1.14,1.01c-0.46,0.27-1.03,0.4-1.7,0.41c-0.86,0.01-1.57-0.27-2.13-0.83
			c-0.56-0.56-0.98-1.28-1.26-2.16C101.52,388.6,101.37,387.67,101.37,386.68z"/>
		<path class="st8" d="M147.88,523.63l0.03,5.32l-20.64,0.13l-0.03-5.32L147.88,523.63z"/>
		<path class="st8" d="M142.75,516.62c0.33-0.04,0.62-0.18,0.86-0.4s0.43-0.53,0.56-0.9c0.13-0.38,0.2-0.81,0.19-1.31
			c0-0.51-0.04-0.99-0.12-1.42c-0.08-0.44-0.19-0.83-0.32-1.18c-0.14-0.34-0.28-0.62-0.43-0.83l3.3-1.97
			c0.18,0.21,0.38,0.54,0.59,0.98c0.21,0.44,0.4,1.05,0.55,1.81c0.16,0.76,0.24,1.74,0.24,2.93c0.01,1.38-0.23,2.62-0.71,3.72
			c-0.48,1.1-1.22,1.98-2.2,2.62c-0.98,0.64-2.21,0.97-3.69,0.98c-1.2,0.01-2.28-0.25-3.25-0.78c-0.97-0.53-1.74-1.3-2.31-2.32
			c-0.57-1.02-0.86-2.25-0.87-3.7c-0.01-1.39,0.23-2.6,0.71-3.62c0.48-1.02,1.21-1.81,2.18-2.37c0.98-0.55,2.21-0.84,3.71-0.85
			c0.08,0,0.24,0,0.47,0c0.24,0,0.39,0.01,0.47,0.03L142.75,516.62z M140.33,513.01c-0.33,0.01-0.62,0.09-0.88,0.22
			s-0.46,0.33-0.61,0.57s-0.22,0.55-0.22,0.92c0,0.35,0.07,0.66,0.21,0.93c0.14,0.27,0.34,0.48,0.6,0.63
			c0.26,0.15,0.57,0.23,0.93,0.24L140.33,513.01z"/>
		<path class="st8" d="M135.06,500.01c0-0.86,0.06-1.65,0.2-2.36c0.14-0.72,0.28-1.31,0.45-1.79c0.16-0.48,0.29-0.77,0.38-0.89
			l3.1,1.65c-0.13,0.18-0.3,0.53-0.51,1.04c-0.21,0.52-0.32,1.08-0.31,1.71c0,0.41,0.05,0.75,0.15,1.01c0.1,0.26,0.26,0.4,0.49,0.39
			c0.22,0,0.4-0.16,0.54-0.47s0.27-0.78,0.37-1.41c0.11-0.57,0.29-1.17,0.54-1.8c0.25-0.63,0.63-1.17,1.15-1.61
			c0.51-0.44,1.2-0.66,2.06-0.67c0.92,0,1.67,0.19,2.25,0.59c0.58,0.4,1.03,0.92,1.34,1.56c0.32,0.64,0.54,1.34,0.67,2.08
			c0.12,0.75,0.19,1.46,0.19,2.14c0.01,1-0.08,1.87-0.25,2.6c-0.17,0.73-0.36,1.31-0.58,1.75s-0.39,0.74-0.5,0.9l-3.44-1.61
			c0.21-0.26,0.45-0.69,0.71-1.27c0.27-0.59,0.4-1.19,0.39-1.83c0-0.56-0.07-0.98-0.19-1.27c-0.13-0.29-0.3-0.43-0.52-0.42
			c-0.17,0-0.31,0.07-0.42,0.21c-0.11,0.14-0.21,0.35-0.3,0.62c-0.09,0.27-0.17,0.61-0.25,1.02c-0.07,0.37-0.18,0.78-0.34,1.23
			c-0.16,0.45-0.39,0.88-0.69,1.29c-0.3,0.41-0.68,0.74-1.14,1.01s-1.03,0.4-1.7,0.41c-0.86,0-1.57-0.27-2.13-0.83
			c-0.56-0.56-0.98-1.28-1.26-2.16C135.21,501.93,135.07,501,135.06,500.01z"/>
		<path class="st8" d="M133.42,481.63c0,0.8-0.28,1.48-0.84,2.05s-1.24,0.86-2.03,0.86c-0.53,0-1.02-0.12-1.46-0.38
			c-0.44-0.26-0.8-0.6-1.07-1.04c-0.27-0.44-0.41-0.92-0.41-1.45c0-0.53,0.13-1.02,0.39-1.46c0.26-0.45,0.61-0.8,1.05-1.07
			s0.93-0.4,1.47-0.41c0.79-0.01,1.47,0.28,2.05,0.84C133.13,480.13,133.41,480.82,133.42,481.63z M154.24,484.03
			c0.01,0.99-0.08,1.8-0.26,2.44c-0.18,0.64-0.37,1.12-0.55,1.45l-3.94-1.55c0.13-0.17,0.22-0.35,0.27-0.53
			c0.05-0.18,0.08-0.37,0.08-0.56c0-0.2-0.06-0.38-0.17-0.55c-0.11-0.17-0.28-0.3-0.5-0.39c-0.22-0.09-0.5-0.13-0.84-0.13l-13,0.08
			l-0.03-5.31l13.74-0.08c0.96-0.01,1.83,0.17,2.61,0.52c0.78,0.35,1.41,0.91,1.88,1.67S154.23,482.83,154.24,484.03z"/>
		<path class="st8" d="M147.91,469.55c0.01,1.38-0.26,2.61-0.8,3.68c-0.54,1.07-1.3,1.92-2.27,2.53c-0.97,0.62-2.09,0.93-3.36,0.94
			c-1.27,0.01-2.4-0.29-3.39-0.89s-1.77-1.44-2.34-2.51c-0.57-1.07-0.86-2.29-0.87-3.67c-0.01-1.37,0.27-2.58,0.83-3.64
			s1.33-1.89,2.31-2.49c0.98-0.6,2.11-0.91,3.38-0.91c1.27-0.01,2.39,0.28,3.37,0.87c0.98,0.59,1.75,1.41,2.3,2.46
			C147.62,466.97,147.9,468.18,147.91,469.55z M143.58,469.58c0-0.41-0.09-0.76-0.27-1.06s-0.43-0.53-0.76-0.69
			s-0.72-0.24-1.16-0.23c-0.43,0-0.81,0.08-1.14,0.25s-0.58,0.39-0.77,0.7c-0.18,0.3-0.27,0.66-0.27,1.07c0,0.42,0.1,0.78,0.28,1.08
			c0.19,0.3,0.45,0.53,0.78,0.7c0.33,0.17,0.71,0.25,1.14,0.25c0.44,0,0.82-0.09,1.15-0.26c0.33-0.17,0.58-0.41,0.75-0.71
			C143.49,470.36,143.58,470,143.58,469.58z"/>
		<path class="st8" d="M140.65,455.41c0.86,0,1.55-0.16,2.06-0.46c0.51-0.3,0.77-0.84,0.76-1.61c0-0.78-0.27-1.32-0.78-1.62
			c-0.52-0.3-1.21-0.44-2.07-0.44l-5.5,0.03l-0.03-5.22l6.04-0.04c1.36-0.01,2.54,0.27,3.54,0.83c1,0.56,1.77,1.39,2.31,2.47
			c0.54,1.08,0.82,2.4,0.83,3.95c0.01,1.54-0.25,2.85-0.78,3.93c-0.53,1.08-1.29,1.92-2.28,2.5c-0.99,0.58-2.17,0.88-3.53,0.88
			l-6.04,0.04l-0.03-5.22L140.65,455.41z"/>
		<path class="st8" d="M147.36,438.75l0.03,5.31l-12.31,0.08l-0.03-5.31l1.81-0.01l0,0.08c-0.22-0.1-0.5-0.3-0.84-0.6
			c-0.34-0.3-0.65-0.73-0.93-1.28c-0.28-0.55-0.42-1.24-0.42-2.08c0-0.56,0.08-1.09,0.26-1.59c0.18-0.5,0.35-0.87,0.52-1.1
			l4.32,2.01c-0.19,0.13-0.38,0.38-0.57,0.74c-0.19,0.36-0.29,0.81-0.28,1.34c0,0.6,0.14,1.08,0.41,1.45
			c0.27,0.36,0.6,0.62,0.99,0.78c0.39,0.16,0.77,0.24,1.13,0.23L147.36,438.75z"/>
		<path class="st8" d="M134.6,425.29c-0.01-0.86,0.06-1.65,0.2-2.36c0.14-0.71,0.28-1.31,0.45-1.79c0.16-0.48,0.29-0.77,0.38-0.89
			l3.1,1.65c-0.13,0.18-0.3,0.53-0.51,1.05c-0.21,0.52-0.32,1.08-0.31,1.7c0,0.41,0.05,0.75,0.15,1.01c0.1,0.27,0.26,0.4,0.49,0.39
			c0.22,0,0.4-0.16,0.55-0.47c0.14-0.31,0.27-0.78,0.37-1.41c0.11-0.57,0.29-1.17,0.54-1.8c0.25-0.63,0.63-1.17,1.15-1.6
			c0.51-0.44,1.2-0.66,2.06-0.67c0.92-0.01,1.67,0.19,2.25,0.59c0.58,0.4,1.03,0.92,1.34,1.56c0.32,0.64,0.54,1.34,0.67,2.08
			s0.19,1.46,0.19,2.14c0.01,1-0.08,1.87-0.25,2.6c-0.17,0.73-0.36,1.32-0.58,1.75c-0.22,0.44-0.39,0.73-0.5,0.89l-3.44-1.61
			c0.21-0.26,0.45-0.68,0.71-1.27c0.27-0.59,0.4-1.2,0.39-1.83c0-0.56-0.07-0.98-0.2-1.27c-0.13-0.28-0.3-0.43-0.52-0.42
			c-0.17,0-0.31,0.07-0.42,0.21s-0.21,0.35-0.3,0.62c-0.09,0.27-0.17,0.61-0.25,1.02c-0.07,0.37-0.18,0.78-0.35,1.23
			c-0.16,0.45-0.39,0.88-0.69,1.29c-0.3,0.41-0.68,0.75-1.14,1.01c-0.46,0.27-1.03,0.4-1.7,0.41c-0.86,0.01-1.57-0.27-2.13-0.83
			c-0.56-0.56-0.98-1.28-1.26-2.16C134.75,427.22,134.61,426.28,134.6,425.29z"/>
	</g>
</g>
<g>
	<g>
		<path class="st8" d="M265.61,522.65l-0.03-5.13l19.75-8.13l0.03,5.56l-3.67,1.37l0.04,7.3l3.68,1.33l0.03,5.59L265.61,522.65z
			 M277.18,521.92l-0.02-3.83l-5.3,1.92l0,0.04L277.18,521.92z"/>
		<path class="st8" d="M285.26,498.55l-1.85,0.01c0.19,0.1,0.46,0.32,0.82,0.67c0.36,0.35,0.68,0.81,0.97,1.38
			c0.29,0.57,0.43,1.24,0.44,2.01c0.01,1.22-0.29,2.28-0.88,3.17c-0.59,0.89-1.39,1.59-2.37,2.08c-0.99,0.49-2.06,0.74-3.22,0.75
			c-1.16,0.01-2.24-0.23-3.23-0.71c-0.99-0.48-1.79-1.16-2.41-2.05c-0.61-0.89-0.92-1.94-0.93-3.16c0-0.73,0.1-1.37,0.32-1.91
			c0.22-0.55,0.47-1,0.77-1.36c0.3-0.36,0.58-0.61,0.85-0.76l-1.6,0.01l-0.03-5.28l12.31-0.08L285.26,498.55z M279.14,503.41
			c0.44,0,0.84-0.11,1.21-0.32c0.36-0.21,0.65-0.5,0.86-0.86c0.21-0.36,0.31-0.77,0.31-1.23c0-0.46-0.11-0.87-0.32-1.22
			s-0.5-0.63-0.87-0.83c-0.37-0.2-0.77-0.3-1.21-0.3s-0.84,0.11-1.21,0.32c-0.36,0.21-0.65,0.49-0.86,0.84
			c-0.21,0.36-0.32,0.76-0.31,1.22c0,0.46,0.11,0.87,0.33,1.23c0.22,0.36,0.51,0.64,0.88,0.85
			C278.3,503.31,278.7,503.42,279.14,503.41z M291.88,501.24c0,0.82-0.06,1.67-0.19,2.54c-0.13,0.87-0.37,1.7-0.73,2.49
			c-0.35,0.79-0.87,1.46-1.55,2.03l-3.24-3.02c0.28-0.25,0.54-0.55,0.78-0.89c0.24-0.34,0.44-0.75,0.59-1.22
			c0.15-0.47,0.23-1.02,0.22-1.65c0-0.57-0.09-1.08-0.26-1.53s-0.44-0.8-0.81-1.05c-0.37-0.25-0.83-0.38-1.41-0.38l-0.27,0
			l-0.03-5.22l0.57,0c1.38-0.01,2.54,0.34,3.47,1.04c0.93,0.7,1.64,1.65,2.12,2.85C291.62,498.4,291.87,499.75,291.88,501.24z"/>
		<path class="st8" d="M285.18,485.86l0.03,5.31l-12.31,0.08l-0.03-5.31l1.81-0.01V486c-0.22-0.1-0.5-0.3-0.84-0.6
			c-0.34-0.3-0.65-0.73-0.93-1.28c-0.28-0.55-0.42-1.24-0.42-2.08c0-0.56,0.08-1.09,0.26-1.59c0.18-0.5,0.35-0.87,0.52-1.1
			l4.32,2.01c-0.19,0.13-0.38,0.38-0.57,0.74c-0.19,0.36-0.29,0.81-0.28,1.34c0,0.6,0.14,1.08,0.41,1.44
			c0.27,0.36,0.6,0.62,0.99,0.78c0.39,0.16,0.77,0.24,1.13,0.23L285.18,485.86z"/>
		<path class="st8" d="M270.91,475.47c0,0.81-0.28,1.5-0.84,2.07s-1.24,0.86-2.03,0.86c-0.79,0-1.48-0.27-2.06-0.84
			c-0.58-0.56-0.88-1.25-0.88-2.06c0-0.53,0.13-1.02,0.39-1.46c0.26-0.44,0.61-0.8,1.05-1.07c0.44-0.27,0.93-0.41,1.47-0.41
			c0.79,0,1.47,0.28,2.05,0.85S270.91,474.67,270.91,475.47z M285.13,478.1l-12.31,0.08l-0.03-5.29l12.31-0.08L285.13,478.1z"/>
		<path class="st8" d="M281.28,462.99c0-0.48-0.09-0.88-0.27-1.21c-0.18-0.33-0.33-0.56-0.46-0.69l3.56-2.42
			c0.15,0.18,0.33,0.46,0.53,0.86c0.2,0.39,0.38,0.88,0.53,1.47s0.23,1.25,0.24,2c0.01,1.53-0.26,2.85-0.8,3.96s-1.3,1.96-2.28,2.56
			c-0.98,0.6-2.11,0.91-3.4,0.91c-1.3,0.01-2.44-0.28-3.42-0.87c-0.98-0.59-1.74-1.43-2.3-2.54c-0.55-1.1-0.83-2.42-0.84-3.95
			c0-0.73,0.06-1.39,0.21-1.98c0.14-0.59,0.31-1.09,0.5-1.51c0.19-0.42,0.36-0.71,0.51-0.9l3.6,2.44c-0.06,0.06-0.15,0.18-0.26,0.35
			c-0.11,0.17-0.22,0.38-0.3,0.64s-0.13,0.56-0.13,0.91c0,0.44,0.12,0.84,0.34,1.19c0.22,0.35,0.51,0.63,0.87,0.84
			c0.36,0.21,0.75,0.31,1.19,0.31c0.44,0,0.84-0.11,1.2-0.32c0.36-0.21,0.65-0.5,0.86-0.85
			C281.17,463.83,281.28,463.43,281.28,462.99z"/>
		<path class="st8" d="M278.16,452.1c0.86,0,1.55-0.16,2.06-0.46c0.51-0.3,0.77-0.84,0.76-1.61c0-0.78-0.27-1.32-0.78-1.62
			c-0.52-0.3-1.2-0.44-2.06-0.44l-5.5,0.03l-0.03-5.22l6.04-0.04c1.36-0.01,2.54,0.27,3.54,0.83s1.77,1.39,2.31,2.47
			c0.54,1.08,0.82,2.4,0.83,3.95c0.01,1.54-0.25,2.85-0.78,3.93c-0.53,1.08-1.29,1.92-2.28,2.5s-2.17,0.88-3.53,0.88l-6.04,0.04
			l-0.03-5.22L278.16,452.1z"/>
		<path class="st8" d="M284.87,434.96l0.03,5.33l-20.64,0.13l-0.03-5.32L284.87,434.96z"/>
		<path class="st8" d="M272.54,433.46l-0.01-1.98l-5.06,0.03l-0.03-5.25l5.06-0.03l-0.02-2.61l4.33-0.03l0.02,2.61l2.4-0.01
			c0.43,0,0.8-0.06,1.1-0.18c0.3-0.12,0.46-0.37,0.45-0.75c0-0.23-0.06-0.43-0.16-0.61c-0.11-0.18-0.18-0.29-0.22-0.33l3.74-1.79
			c0.06,0.08,0.17,0.32,0.34,0.72c0.17,0.4,0.32,0.91,0.47,1.53c0.14,0.61,0.22,1.3,0.22,2.05c0.01,1.33-0.35,2.43-1.08,3.29
			c-0.73,0.87-1.86,1.3-3.39,1.31l-3.84,0.02l0.01,1.98L272.54,433.46z"/>
		<path class="st8" d="M277.94,416.09c0.86,0,1.55-0.16,2.06-0.46c0.51-0.3,0.77-0.84,0.76-1.61c0-0.78-0.27-1.32-0.78-1.62
			c-0.52-0.3-1.2-0.44-2.06-0.44l-5.5,0.03l-0.03-5.22l6.04-0.04c1.36-0.01,2.54,0.27,3.54,0.83s1.77,1.39,2.31,2.47
			c0.54,1.08,0.82,2.4,0.83,3.95c0.01,1.54-0.25,2.85-0.78,3.93c-0.53,1.08-1.29,1.92-2.28,2.5s-2.17,0.88-3.53,0.88l-6.04,0.04
			l-0.03-5.22L277.94,416.09z"/>
		<path class="st8" d="M284.65,399.43l0.03,5.31l-12.31,0.07l-0.03-5.31l1.81-0.01l0,0.08c-0.22-0.1-0.5-0.3-0.84-0.6
			s-0.65-0.73-0.93-1.28c-0.28-0.55-0.42-1.25-0.42-2.08c0-0.56,0.08-1.09,0.26-1.59c0.18-0.5,0.35-0.87,0.52-1.1l4.32,2.01
			c-0.19,0.13-0.38,0.38-0.57,0.74c-0.19,0.36-0.29,0.81-0.28,1.34c0,0.6,0.14,1.08,0.41,1.44c0.27,0.36,0.6,0.62,0.99,0.78
			c0.39,0.16,0.77,0.24,1.13,0.23L284.65,399.43z"/>
		<path class="st8" d="M279.49,387.4c0.33-0.04,0.62-0.18,0.86-0.4c0.24-0.23,0.43-0.53,0.56-0.9c0.13-0.38,0.2-0.81,0.19-1.31
			c0-0.51-0.04-0.98-0.12-1.42c-0.08-0.44-0.19-0.83-0.32-1.18c-0.14-0.34-0.28-0.62-0.43-0.83l3.3-1.97
			c0.18,0.21,0.38,0.54,0.59,0.98c0.21,0.44,0.4,1.05,0.55,1.81c0.16,0.76,0.24,1.74,0.24,2.93c0.01,1.38-0.23,2.62-0.71,3.72
			c-0.48,1.1-1.22,1.98-2.2,2.62c-0.98,0.64-2.21,0.97-3.69,0.98c-1.2,0.01-2.28-0.25-3.25-0.78c-0.97-0.53-1.74-1.3-2.31-2.32
			c-0.57-1.02-0.86-2.25-0.87-3.7c-0.01-1.39,0.23-2.6,0.71-3.62c0.48-1.02,1.21-1.81,2.18-2.37c0.98-0.56,2.21-0.84,3.71-0.85
			c0.08,0,0.24,0,0.47,0c0.24,0,0.39,0.02,0.47,0.04L279.49,387.4z M277.07,383.79c-0.33,0.01-0.62,0.09-0.88,0.22
			s-0.46,0.33-0.61,0.57s-0.22,0.55-0.22,0.92c0,0.35,0.07,0.66,0.21,0.93c0.14,0.27,0.34,0.48,0.6,0.63
			c0.26,0.15,0.57,0.23,0.93,0.24L277.07,383.79z"/>
	</g>
</g>
<g>
	<g>
		<path class="st8" d="M429.13,530.64l-0.05-7.8c-0.01-1.28,0.21-2.44,0.67-3.48c0.45-1.04,1.14-1.86,2.05-2.48
			c0.92-0.62,2.05-0.93,3.41-0.94c1.35-0.01,2.51,0.29,3.47,0.89c0.96,0.6,1.7,1.42,2.22,2.45c0.52,1.03,0.78,2.19,0.79,3.47
			l0.02,2.58l7.19-0.04l0.03,5.22L429.13,530.64z M437.63,525.37l-0.01-1.12c0-0.52-0.08-0.98-0.23-1.39
			c-0.15-0.4-0.39-0.73-0.72-0.96c-0.33-0.24-0.75-0.36-1.28-0.35c-0.54,0-0.97,0.13-1.3,0.37c-0.32,0.24-0.56,0.57-0.71,0.97
			c-0.15,0.41-0.22,0.87-0.22,1.39l0.01,1.12L437.63,525.37z"/>
		<path class="st8" d="M448.8,508.68l0.03,5.31l-12.31,0.08l-0.03-5.31l1.81-0.01l0,0.07c-0.22-0.1-0.5-0.3-0.84-0.6
			s-0.65-0.73-0.93-1.29c-0.28-0.55-0.42-1.24-0.42-2.07c0-0.56,0.08-1.09,0.26-1.59c0.18-0.5,0.35-0.87,0.52-1.1l4.32,2.01
			c-0.19,0.13-0.38,0.38-0.57,0.74c-0.19,0.36-0.29,0.81-0.28,1.34c0,0.6,0.14,1.08,0.41,1.45c0.27,0.36,0.6,0.62,0.99,0.78
			c0.39,0.16,0.77,0.24,1.13,0.23L448.8,508.68z"/>
		<path class="st8" d="M449.07,494.53c0.01,1.38-0.26,2.61-0.8,3.68c-0.54,1.07-1.3,1.92-2.27,2.53c-0.97,0.62-2.09,0.93-3.36,0.94
			c-1.27,0.01-2.4-0.29-3.39-0.89c-0.99-0.6-1.77-1.44-2.34-2.51c-0.57-1.07-0.86-2.29-0.87-3.67c-0.01-1.37,0.27-2.58,0.82-3.64
			c0.56-1.06,1.33-1.89,2.31-2.49c0.98-0.6,2.11-0.91,3.38-0.91c1.27-0.01,2.39,0.28,3.37,0.87c0.98,0.59,1.75,1.41,2.3,2.46
			C448.78,491.95,449.06,493.16,449.07,494.53z M444.73,494.56c0-0.41-0.09-0.76-0.27-1.06c-0.18-0.3-0.43-0.53-0.76-0.69
			s-0.72-0.24-1.16-0.23c-0.43,0-0.81,0.08-1.14,0.25s-0.58,0.39-0.77,0.7c-0.18,0.3-0.27,0.66-0.27,1.07c0,0.42,0.1,0.78,0.28,1.08
			c0.19,0.3,0.45,0.53,0.78,0.7c0.33,0.17,0.71,0.25,1.14,0.25c0.44,0,0.82-0.09,1.15-0.26c0.33-0.17,0.58-0.41,0.75-0.71
			C444.65,495.34,444.74,494.98,444.73,494.56z"/>
		<path class="st8" d="M448.98,480.15c0.01,1.22-0.29,2.27-0.88,3.14c-0.59,0.87-1.39,1.55-2.37,2.03
			c-0.99,0.48-2.06,0.72-3.22,0.73s-2.24-0.22-3.23-0.69c-0.99-0.47-1.79-1.13-2.4-2c-0.61-0.87-0.92-1.91-0.93-3.13
			c0-0.74,0.1-1.4,0.31-1.98c0.21-0.58,0.47-1.05,0.77-1.42c0.3-0.37,0.59-0.6,0.86-0.7l-9.93,0.06l-0.03-5.29l20.64-0.13l0.03,5.25
			l-1.85,0.01c0.39,0.23,0.76,0.55,1.09,0.98s0.61,0.91,0.82,1.45C448.87,478.99,448.98,479.56,448.98,480.15z M444.85,478.48
			c0-0.47-0.11-0.88-0.32-1.24c-0.21-0.36-0.5-0.64-0.87-0.84c-0.37-0.2-0.77-0.3-1.21-0.3c-0.44,0-0.84,0.11-1.21,0.31
			s-0.65,0.49-0.86,0.85c-0.21,0.36-0.32,0.78-0.31,1.25c0,0.45,0.11,0.85,0.33,1.21c0.22,0.36,0.51,0.64,0.88,0.84
			c0.37,0.2,0.77,0.3,1.21,0.3s0.84-0.11,1.21-0.31c0.36-0.21,0.65-0.49,0.86-0.85C444.75,479.33,444.85,478.93,444.85,478.48z"/>
		<path class="st8" d="M441.71,463.23c0.86,0,1.55-0.16,2.06-0.46c0.51-0.3,0.77-0.84,0.76-1.61c0-0.78-0.27-1.32-0.78-1.62
			c-0.52-0.3-1.2-0.44-2.06-0.44l-5.5,0.03l-0.03-5.22l6.04-0.04c1.36-0.01,2.54,0.27,3.54,0.83c1,0.56,1.77,1.39,2.31,2.47
			s0.82,2.4,0.83,3.95c0.01,1.54-0.25,2.85-0.78,3.93s-1.29,1.92-2.28,2.5s-2.17,0.88-3.53,0.88l-6.04,0.04l-0.03-5.22
			L441.71,463.23z"/>
		<path class="st8" d="M444.64,444.35c0-0.48-0.09-0.88-0.27-1.21c-0.18-0.33-0.33-0.56-0.46-0.69l3.56-2.42
			c0.15,0.18,0.33,0.47,0.53,0.86c0.2,0.39,0.38,0.88,0.53,1.47c0.15,0.58,0.23,1.25,0.24,2c0.01,1.53-0.26,2.85-0.8,3.96
			c-0.54,1.11-1.3,1.96-2.28,2.56c-0.98,0.6-2.11,0.91-3.4,0.91c-1.3,0.01-2.44-0.28-3.42-0.87c-0.98-0.59-1.74-1.43-2.3-2.54
			s-0.83-2.42-0.84-3.95c0-0.73,0.06-1.39,0.21-1.98c0.14-0.59,0.31-1.09,0.5-1.51c0.19-0.42,0.36-0.71,0.51-0.9l3.6,2.44
			c-0.06,0.06-0.15,0.18-0.26,0.35c-0.11,0.17-0.22,0.38-0.3,0.64c-0.09,0.26-0.13,0.56-0.13,0.91c0,0.44,0.11,0.84,0.34,1.19
			s0.51,0.63,0.87,0.84c0.36,0.21,0.75,0.31,1.19,0.31c0.44,0,0.84-0.11,1.2-0.32c0.36-0.21,0.65-0.5,0.86-0.85
			C444.53,445.19,444.64,444.79,444.64,444.35z"/>
		<path class="st8" d="M436.06,439.58l-0.01-1.98l-5.06,0.03l-0.03-5.25l5.06-0.03l-0.02-2.61l4.33-0.03l0.02,2.61l2.4-0.01
			c0.43,0,0.8-0.06,1.1-0.18c0.3-0.12,0.46-0.37,0.45-0.75c0-0.23-0.05-0.43-0.16-0.61c-0.11-0.18-0.18-0.29-0.22-0.33l3.74-1.79
			c0.06,0.08,0.17,0.32,0.34,0.72c0.17,0.4,0.32,0.91,0.47,1.53c0.14,0.61,0.22,1.3,0.22,2.05c0.01,1.33-0.35,2.43-1.08,3.29
			c-0.73,0.86-1.86,1.3-3.39,1.31l-3.84,0.02l0.01,1.98L436.06,439.58z"/>
		<path class="st8" d="M434.07,424.45c0.01,0.81-0.28,1.5-0.84,2.07s-1.24,0.86-2.03,0.86c-0.79,0-1.48-0.27-2.06-0.84
			c-0.58-0.56-0.88-1.25-0.88-2.06c0-0.53,0.13-1.02,0.39-1.46c0.26-0.44,0.61-0.8,1.05-1.07c0.44-0.27,0.93-0.41,1.47-0.41
			c0.79,0,1.47,0.28,2.04,0.85C433.78,422.97,434.07,423.65,434.07,424.45z M448.3,427.08l-12.31,0.08l-0.03-5.29l12.31-0.08
			L448.3,427.08z"/>
		<path class="st8" d="M448.57,412.47c0.01,1.38-0.26,2.61-0.8,3.68c-0.54,1.07-1.3,1.92-2.27,2.53c-0.97,0.62-2.09,0.93-3.36,0.94
			c-1.27,0.01-2.4-0.29-3.39-0.89c-0.99-0.6-1.77-1.44-2.34-2.51c-0.57-1.07-0.86-2.29-0.87-3.67c-0.01-1.37,0.27-2.58,0.82-3.64
			c0.56-1.06,1.33-1.89,2.31-2.49c0.98-0.6,2.11-0.91,3.38-0.91c1.27-0.01,2.39,0.28,3.37,0.87c0.98,0.59,1.75,1.41,2.3,2.46
			C448.28,409.89,448.56,411.1,448.57,412.47z M444.23,412.5c0-0.41-0.09-0.76-0.27-1.06c-0.18-0.3-0.43-0.53-0.76-0.69
			c-0.33-0.16-0.72-0.23-1.16-0.23c-0.43,0-0.81,0.09-1.14,0.25c-0.33,0.16-0.58,0.39-0.77,0.69c-0.18,0.3-0.27,0.66-0.27,1.07
			c0,0.42,0.1,0.78,0.28,1.08c0.19,0.3,0.45,0.53,0.78,0.7c0.33,0.17,0.71,0.25,1.14,0.25c0.44,0,0.82-0.09,1.15-0.26
			c0.33-0.17,0.58-0.41,0.75-0.71C444.15,413.28,444.23,412.92,444.23,412.5z"/>
		<path class="st8" d="M435.42,394.31c-0.01-0.89,0.16-1.76,0.51-2.6c0.34-0.84,0.9-1.54,1.67-2.09c0.77-0.55,1.77-0.83,3.01-0.84
			l7.46-0.05l0.03,5.33l-6.6,0.04c-0.75,0-1.33,0.19-1.73,0.55c-0.4,0.36-0.6,0.84-0.6,1.44c0,0.39,0.1,0.75,0.31,1.09
			s0.48,0.61,0.85,0.81c0.36,0.2,0.78,0.3,1.26,0.3l6.54-0.04l0.03,5.31l-12.31,0.08l-0.03-5.31l1.67-0.01
			c-0.33-0.13-0.65-0.38-0.96-0.76c-0.31-0.38-0.57-0.85-0.77-1.42C435.53,395.58,435.42,394.97,435.42,394.31z"/>
		<path class="st8" d="M482.26,525.03c0.01,1.22-0.29,2.27-0.88,3.14s-1.39,1.55-2.37,2.03c-0.99,0.48-2.06,0.72-3.22,0.73
			c-1.16,0.01-2.24-0.22-3.23-0.69c-0.99-0.47-1.79-1.14-2.4-2c-0.61-0.87-0.92-1.91-0.93-3.13c0-0.74,0.1-1.4,0.31-1.98
			c0.21-0.58,0.47-1.06,0.77-1.42c0.3-0.37,0.59-0.6,0.86-0.7l-9.93,0.06l-0.03-5.29l20.64-0.13l0.03,5.25l-1.85,0.01
			c0.39,0.23,0.76,0.55,1.09,0.98c0.34,0.42,0.61,0.91,0.82,1.45C482.15,523.88,482.25,524.44,482.26,525.03z M478.12,523.36
			c0-0.47-0.11-0.88-0.32-1.24c-0.21-0.36-0.5-0.64-0.87-0.84c-0.37-0.2-0.77-0.3-1.21-0.3s-0.84,0.11-1.21,0.32
			c-0.36,0.21-0.65,0.49-0.86,0.85c-0.21,0.36-0.32,0.78-0.31,1.25c0,0.45,0.11,0.85,0.33,1.21c0.22,0.36,0.51,0.64,0.88,0.84
			c0.37,0.2,0.77,0.3,1.21,0.3c0.44,0,0.84-0.11,1.21-0.32s0.65-0.49,0.86-0.85C478.02,524.22,478.12,523.81,478.12,523.36z"/>
		<path class="st8" d="M470.69,512.07l-0.94,1.19c-0.11-0.23-0.32-0.56-0.63-0.98s-0.67-0.81-1.1-1.16s-0.89-0.52-1.38-0.52
			c0.1,0.1,0.18,0.27,0.23,0.5c0.05,0.23,0.08,0.47,0.08,0.71c0,0.51-0.2,1-0.6,1.47c-0.4,0.47-1.05,0.7-1.94,0.71
			c-0.94,0.01-1.68-0.27-2.23-0.83c-0.55-0.56-0.83-1.25-0.83-2.07c-0.01-0.84,0.29-1.54,0.87-2.1c0.59-0.56,1.46-0.85,2.61-0.86
			c0.97-0.01,1.84,0.18,2.61,0.55c0.77,0.37,1.43,0.85,1.97,1.45C469.96,510.72,470.38,511.37,470.69,512.07z"/>
		<path class="st8" d="M468.19,501.28l-2.06,1.51l-4.41-4.97l3.04-2.45L468.19,501.28z M476.67,501.28c0.33-0.04,0.62-0.18,0.86-0.4
			c0.24-0.23,0.43-0.53,0.56-0.9c0.13-0.38,0.2-0.81,0.19-1.31c0-0.51-0.04-0.99-0.12-1.42c-0.08-0.44-0.19-0.83-0.32-1.18
			c-0.14-0.34-0.28-0.62-0.43-0.83l3.3-1.97c0.18,0.21,0.38,0.54,0.59,0.98c0.21,0.44,0.4,1.05,0.55,1.81s0.24,1.74,0.24,2.93
			c0.01,1.38-0.23,2.62-0.71,3.72c-0.48,1.1-1.22,1.98-2.2,2.62c-0.98,0.64-2.21,0.97-3.69,0.98c-1.2,0.01-2.28-0.25-3.25-0.78
			s-1.74-1.3-2.31-2.32c-0.57-1.02-0.86-2.25-0.87-3.7c-0.01-1.39,0.23-2.6,0.71-3.62c0.48-1.02,1.21-1.81,2.18-2.37
			c0.98-0.56,2.22-0.84,3.72-0.85c0.08,0,0.24,0,0.47,0c0.24,0,0.39,0.02,0.47,0.04L476.67,501.28z M474.24,497.66
			c-0.33,0.01-0.62,0.09-0.88,0.22c-0.26,0.14-0.46,0.33-0.61,0.57s-0.22,0.55-0.22,0.92c0,0.35,0.07,0.66,0.21,0.93
			c0.14,0.27,0.34,0.48,0.6,0.63c0.26,0.15,0.57,0.23,0.93,0.24L474.24,497.66z"/>
		<path class="st8" d="M468.95,481.45c-0.01-0.89,0.16-1.76,0.51-2.6c0.34-0.84,0.9-1.54,1.67-2.09c0.77-0.55,1.77-0.83,3.01-0.84
			l7.45-0.05l0.03,5.33l-6.6,0.04c-0.75,0-1.33,0.19-1.73,0.55c-0.4,0.36-0.6,0.84-0.6,1.44c0,0.39,0.1,0.75,0.31,1.09
			c0.2,0.34,0.48,0.61,0.85,0.81s0.78,0.3,1.26,0.3l6.54-0.04l0.03,5.31l-12.31,0.07l-0.03-5.31l1.67-0.01
			c-0.33-0.13-0.65-0.38-0.96-0.76c-0.31-0.38-0.56-0.85-0.77-1.42C469.06,482.72,468.96,482.11,468.95,481.45z"/>
		<path class="st8" d="M476.47,469.15c0.33-0.04,0.62-0.18,0.86-0.4c0.24-0.23,0.43-0.53,0.56-0.9c0.13-0.38,0.2-0.81,0.19-1.31
			c0-0.51-0.04-0.98-0.12-1.42c-0.08-0.44-0.19-0.83-0.32-1.18c-0.14-0.34-0.28-0.62-0.43-0.83l3.3-1.97
			c0.18,0.21,0.38,0.54,0.59,0.98c0.21,0.44,0.4,1.05,0.55,1.81c0.16,0.76,0.24,1.74,0.24,2.93c0.01,1.38-0.23,2.62-0.71,3.72
			s-1.22,1.97-2.2,2.62c-0.98,0.64-2.21,0.97-3.69,0.98c-1.2,0.01-2.28-0.25-3.25-0.78c-0.97-0.53-1.74-1.3-2.31-2.32
			c-0.57-1.02-0.86-2.25-0.87-3.7c-0.01-1.39,0.23-2.6,0.71-3.62c0.48-1.02,1.21-1.81,2.18-2.37c0.98-0.56,2.21-0.84,3.71-0.85
			c0.08,0,0.24,0,0.47,0c0.24,0,0.39,0.02,0.47,0.04L476.47,469.15z M474.05,465.53c-0.33,0.01-0.62,0.09-0.88,0.22
			s-0.46,0.33-0.61,0.57c-0.15,0.25-0.22,0.55-0.22,0.92c0,0.35,0.07,0.66,0.21,0.93s0.34,0.48,0.6,0.63
			c0.26,0.15,0.57,0.23,0.93,0.24L474.05,465.53z"/>
		<path class="st8" d="M481.46,453.55l0.03,5.31l-12.31,0.08l-0.03-5.31l1.81-0.01l0,0.08c-0.22-0.1-0.5-0.3-0.84-0.6
			c-0.34-0.3-0.65-0.73-0.93-1.28c-0.28-0.55-0.42-1.24-0.42-2.08c0-0.56,0.08-1.09,0.26-1.59s0.35-0.87,0.52-1.1l4.32,2.01
			c-0.19,0.13-0.38,0.38-0.57,0.74c-0.19,0.36-0.29,0.81-0.28,1.34c0,0.6,0.14,1.08,0.41,1.45c0.27,0.36,0.6,0.62,0.99,0.78
			c0.39,0.16,0.77,0.24,1.13,0.23L481.46,453.55z"/>
		<path class="st8" d="M481.35,436.48l-1.85,0.01c0.19,0.1,0.46,0.32,0.82,0.67c0.36,0.35,0.68,0.81,0.97,1.38
			c0.29,0.57,0.43,1.25,0.44,2.02c0.01,1.22-0.29,2.28-0.88,3.17c-0.59,0.89-1.39,1.59-2.37,2.08s-2.06,0.74-3.22,0.75
			c-1.16,0.01-2.24-0.23-3.23-0.71s-1.79-1.16-2.41-2.05c-0.61-0.89-0.92-1.94-0.93-3.16c0-0.73,0.1-1.37,0.32-1.92
			c0.22-0.55,0.47-1,0.77-1.35s0.58-0.61,0.85-0.76l-1.6,0.01l-0.03-5.28l12.31-0.07L481.35,436.48z M475.23,441.35
			c0.44,0,0.84-0.11,1.21-0.32c0.36-0.21,0.65-0.5,0.86-0.86c0.21-0.36,0.31-0.77,0.31-1.23c0-0.46-0.11-0.87-0.32-1.22
			c-0.21-0.35-0.5-0.63-0.87-0.83c-0.37-0.2-0.77-0.3-1.21-0.3c-0.44,0-0.84,0.11-1.21,0.31c-0.36,0.21-0.65,0.49-0.87,0.85
			c-0.21,0.36-0.32,0.76-0.31,1.22c0,0.46,0.11,0.87,0.33,1.23c0.22,0.36,0.51,0.64,0.88,0.85
			C474.39,441.25,474.79,441.35,475.23,441.35z M487.97,439.17c0,0.82-0.06,1.67-0.19,2.54c-0.13,0.87-0.37,1.7-0.73,2.49
			c-0.35,0.79-0.87,1.46-1.55,2.03l-3.24-3.03c0.28-0.25,0.54-0.55,0.78-0.89c0.24-0.34,0.44-0.75,0.59-1.22
			c0.15-0.47,0.23-1.02,0.22-1.65c0-0.57-0.09-1.08-0.26-1.53c-0.17-0.45-0.44-0.8-0.81-1.05c-0.37-0.25-0.83-0.38-1.41-0.37
			l-0.27,0l-0.03-5.22l0.57,0c1.38-0.01,2.54,0.34,3.47,1.04c0.93,0.7,1.64,1.65,2.12,2.84
			C487.72,436.33,487.96,437.68,487.97,439.17z"/>
		<path class="st8" d="M467.08,425.84c0,0.81-0.28,1.5-0.84,2.07s-1.24,0.86-2.03,0.86c-0.79,0-1.48-0.27-2.06-0.83
			s-0.88-1.25-0.88-2.06c0-0.53,0.13-1.02,0.39-1.46c0.26-0.44,0.61-0.8,1.05-1.07c0.44-0.27,0.93-0.41,1.47-0.41
			c0.79,0,1.47,0.28,2.04,0.85C466.79,424.36,467.08,425.04,467.08,425.84z M481.3,428.47l-12.31,0.08l-0.03-5.29l12.31-0.08
			L481.3,428.47z"/>
		<path class="st8" d="M476.14,415.97c0.33-0.04,0.62-0.18,0.86-0.4c0.24-0.23,0.43-0.53,0.56-0.9c0.13-0.38,0.2-0.81,0.19-1.31
			c0-0.51-0.04-0.99-0.12-1.42c-0.08-0.44-0.19-0.83-0.32-1.18c-0.14-0.34-0.28-0.62-0.43-0.83l3.3-1.97
			c0.18,0.21,0.38,0.54,0.59,0.98c0.21,0.44,0.4,1.05,0.55,1.81c0.16,0.76,0.24,1.74,0.24,2.93c0.01,1.38-0.23,2.62-0.71,3.72
			c-0.48,1.1-1.22,1.98-2.2,2.62c-0.98,0.64-2.21,0.97-3.69,0.97c-1.2,0.01-2.28-0.25-3.25-0.78c-0.97-0.53-1.74-1.3-2.31-2.32
			c-0.57-1.02-0.86-2.25-0.87-3.7c-0.01-1.39,0.23-2.6,0.71-3.62c0.48-1.02,1.21-1.81,2.18-2.37c0.98-0.55,2.22-0.84,3.72-0.85
			c0.08,0,0.24,0,0.47,0c0.24,0,0.39,0.01,0.47,0.03L476.14,415.97z M473.72,412.36c-0.33,0.01-0.62,0.09-0.88,0.22
			c-0.26,0.14-0.46,0.33-0.61,0.57c-0.15,0.25-0.22,0.55-0.22,0.92c0,0.35,0.07,0.66,0.21,0.93c0.14,0.27,0.34,0.48,0.6,0.63
			c0.26,0.15,0.57,0.23,0.93,0.24L473.72,412.36z"/>
	</g>
</g>
<g>
	<g>
		<path class="st8" d="M597.6,529.94l-0.05-8.52c-0.01-1.18,0.23-2.23,0.72-3.14c0.49-0.91,1.19-1.63,2.11-2.17
			c0.92-0.53,2.01-0.8,3.28-0.81c1.26-0.01,2.29,0.2,3.08,0.63c0.79,0.43,1.39,0.94,1.78,1.53c0.39,0.6,0.64,1.15,0.75,1.65
			l8.04-4.82l0.04,5.86l-7.64,4.22l0,0.26l7.67-0.05l0.03,5.23L597.6,529.94z M606.13,524.65l-0.01-1.41c0-0.65-0.16-1.24-0.48-1.77
			c-0.31-0.53-0.91-0.8-1.79-0.79c-0.87,0.01-1.46,0.27-1.76,0.8s-0.46,1.11-0.46,1.75l0.01,1.46L606.13,524.65z"/>
		<path class="st8" d="M603.7,507.1l-2.06,1.51l-4.41-4.97l3.04-2.45L603.7,507.1z M612.18,507.09c0.33-0.04,0.62-0.18,0.86-0.4
			c0.24-0.23,0.43-0.53,0.56-0.9c0.13-0.38,0.2-0.81,0.19-1.31c0-0.51-0.04-0.98-0.12-1.42c-0.08-0.44-0.19-0.83-0.32-1.18
			c-0.14-0.34-0.28-0.62-0.43-0.83l3.3-1.97c0.18,0.21,0.38,0.54,0.59,0.98c0.21,0.44,0.4,1.05,0.55,1.81
			c0.16,0.76,0.24,1.74,0.24,2.93c0.01,1.38-0.23,2.62-0.71,3.72c-0.48,1.1-1.21,1.97-2.2,2.62c-0.98,0.64-2.21,0.97-3.69,0.98
			c-1.2,0.01-2.28-0.25-3.25-0.78c-0.97-0.53-1.74-1.3-2.31-2.32c-0.57-1.02-0.86-2.25-0.87-3.7c-0.01-1.39,0.23-2.6,0.71-3.62
			c0.48-1.02,1.21-1.81,2.18-2.37c0.98-0.56,2.21-0.84,3.71-0.85c0.08,0,0.24,0,0.47,0s0.39,0.02,0.47,0.04L612.18,507.09z
			 M609.75,503.48c-0.33,0.01-0.62,0.09-0.88,0.22c-0.26,0.14-0.46,0.33-0.61,0.57c-0.15,0.25-0.22,0.55-0.22,0.92
			c0,0.35,0.07,0.66,0.21,0.93c0.14,0.27,0.34,0.48,0.6,0.63c0.26,0.15,0.57,0.23,0.93,0.24L609.75,503.48z"/>
		<path class="st8" d="M613.39,489.27c0-0.48-0.09-0.88-0.27-1.21c-0.18-0.33-0.33-0.56-0.46-0.69l3.55-2.42
			c0.15,0.18,0.33,0.46,0.53,0.86c0.2,0.39,0.38,0.88,0.53,1.47c0.15,0.58,0.23,1.25,0.24,2c0.01,1.53-0.26,2.85-0.8,3.96
			s-1.3,1.96-2.28,2.56c-0.98,0.6-2.11,0.91-3.4,0.91c-1.3,0.01-2.44-0.28-3.42-0.87c-0.98-0.59-1.74-1.43-2.3-2.54
			c-0.55-1.1-0.83-2.42-0.84-3.95c0-0.73,0.06-1.39,0.21-1.98c0.14-0.59,0.31-1.09,0.5-1.51c0.19-0.42,0.36-0.71,0.51-0.9l3.6,2.44
			c-0.06,0.06-0.15,0.18-0.26,0.35c-0.11,0.17-0.22,0.38-0.3,0.64c-0.09,0.26-0.13,0.56-0.13,0.91c0,0.44,0.12,0.84,0.34,1.19
			c0.22,0.35,0.51,0.63,0.87,0.84c0.36,0.21,0.75,0.31,1.19,0.31c0.44,0,0.84-0.11,1.2-0.32c0.36-0.21,0.65-0.5,0.86-0.85
			C613.28,490.1,613.39,489.71,613.39,489.27z"/>
		<path class="st8" d="M617.09,478.58l0.03,5.31l-12.32,0.07l-0.03-5.31l1.81-0.01l0,0.08c-0.22-0.1-0.5-0.3-0.84-0.6
			s-0.65-0.73-0.93-1.28s-0.42-1.25-0.42-2.08c0-0.56,0.08-1.09,0.26-1.59c0.18-0.5,0.35-0.87,0.52-1.1l4.32,2.01
			c-0.19,0.13-0.38,0.38-0.57,0.74c-0.19,0.36-0.29,0.81-0.28,1.34c0,0.6,0.14,1.08,0.41,1.44c0.27,0.36,0.6,0.62,0.99,0.78
			c0.39,0.16,0.77,0.24,1.13,0.23L617.09,478.58z"/>
		<path class="st8" d="M603.45,466.56l-2.06,1.51l-4.41-4.97l3.04-2.45L603.45,466.56z M611.93,466.55c0.33-0.04,0.62-0.18,0.86-0.4
			c0.24-0.23,0.43-0.53,0.56-0.9c0.13-0.38,0.2-0.81,0.19-1.31c0-0.51-0.04-0.98-0.12-1.42c-0.08-0.44-0.18-0.83-0.32-1.18
			c-0.14-0.34-0.28-0.62-0.43-0.83l3.3-1.97c0.18,0.21,0.38,0.54,0.59,0.98c0.21,0.44,0.4,1.05,0.55,1.81
			c0.16,0.76,0.24,1.74,0.24,2.93c0.01,1.38-0.23,2.62-0.71,3.72c-0.48,1.1-1.22,1.98-2.2,2.62c-0.98,0.64-2.21,0.97-3.69,0.98
			c-1.2,0.01-2.28-0.25-3.25-0.78c-0.97-0.53-1.74-1.3-2.31-2.32c-0.57-1.02-0.86-2.25-0.87-3.7c-0.01-1.39,0.23-2.6,0.71-3.62
			c0.48-1.02,1.21-1.81,2.18-2.37s2.21-0.84,3.71-0.85c0.08,0,0.24,0,0.47,0s0.39,0.02,0.47,0.04L611.93,466.55z M609.51,462.93
			c-0.33,0.01-0.62,0.09-0.88,0.22c-0.26,0.14-0.46,0.33-0.61,0.57s-0.22,0.55-0.22,0.92c0,0.35,0.07,0.66,0.21,0.93
			s0.33,0.48,0.6,0.63c0.26,0.15,0.57,0.23,0.93,0.24L609.51,462.93z"/>
		<path class="st8" d="M616.89,446.3l-1.85,0.01c0.19,0.1,0.46,0.32,0.82,0.67s0.68,0.81,0.97,1.38c0.29,0.57,0.43,1.25,0.44,2.01
			c0.01,1.22-0.29,2.28-0.88,3.17s-1.38,1.59-2.37,2.08c-0.99,0.49-2.06,0.74-3.22,0.75s-2.24-0.23-3.23-0.71s-1.79-1.16-2.41-2.05
			c-0.61-0.89-0.92-1.94-0.93-3.16c0-0.73,0.1-1.37,0.32-1.91c0.22-0.55,0.47-1,0.77-1.36c0.3-0.36,0.58-0.61,0.85-0.76l-1.6,0.01
			l-0.03-5.28l12.32-0.07L616.89,446.3z M610.77,451.17c0.44,0,0.84-0.11,1.21-0.32s0.65-0.5,0.86-0.86
			c0.21-0.36,0.31-0.77,0.31-1.23c0-0.46-0.11-0.87-0.32-1.22c-0.21-0.35-0.5-0.63-0.87-0.83s-0.77-0.3-1.21-0.3
			c-0.44,0-0.84,0.11-1.21,0.32c-0.36,0.21-0.65,0.49-0.87,0.84c-0.21,0.36-0.32,0.77-0.31,1.22c0,0.46,0.11,0.87,0.33,1.23
			c0.22,0.36,0.51,0.64,0.88,0.85C609.93,451.07,610.33,451.17,610.77,451.17z"/>
		<path class="st8" d="M604.53,439.54l-0.01-1.98l-5.06,0.03l-0.03-5.25l5.06-0.03l-0.02-2.61l4.33-0.03l0.02,2.61l2.4-0.02
			c0.43,0,0.8-0.06,1.1-0.18c0.3-0.12,0.46-0.36,0.45-0.74c0-0.23-0.05-0.43-0.16-0.61c-0.11-0.18-0.18-0.29-0.22-0.33l3.74-1.79
			c0.06,0.08,0.17,0.32,0.34,0.73c0.17,0.4,0.32,0.91,0.47,1.53c0.14,0.61,0.22,1.29,0.22,2.04c0.01,1.33-0.35,2.43-1.08,3.29
			s-1.86,1.3-3.39,1.31l-3.84,0.02l0.01,1.98L604.53,439.54z"/>
		<path class="st8" d="M602.55,424.41c0,0.81-0.28,1.5-0.84,2.07s-1.24,0.86-2.03,0.86c-0.79,0.01-1.48-0.27-2.06-0.83
			c-0.58-0.56-0.88-1.25-0.88-2.06c0-0.53,0.13-1.02,0.39-1.46c0.26-0.44,0.61-0.8,1.05-1.07c0.44-0.27,0.93-0.41,1.47-0.41
			c0.79,0,1.47,0.28,2.04,0.85S602.54,423.61,602.55,424.41z M616.77,427.04l-12.32,0.07l-0.03-5.29l12.32-0.07L616.77,427.04z"/>
		<path class="st8" d="M617.04,412.43c0.01,1.38-0.26,2.61-0.8,3.68c-0.54,1.07-1.3,1.92-2.27,2.53c-0.97,0.62-2.09,0.93-3.36,0.94
			s-2.4-0.29-3.39-0.89c-0.99-0.6-1.77-1.44-2.34-2.51c-0.57-1.07-0.86-2.29-0.87-3.67c-0.01-1.37,0.27-2.58,0.83-3.64
			s1.33-1.89,2.31-2.49c0.98-0.6,2.11-0.91,3.38-0.91c1.27-0.01,2.39,0.28,3.37,0.87c0.98,0.59,1.75,1.41,2.3,2.46
			C616.75,409.85,617.03,411.06,617.04,412.43z M612.71,412.46c0-0.41-0.09-0.76-0.27-1.06c-0.18-0.3-0.43-0.53-0.76-0.69
			c-0.33-0.16-0.72-0.24-1.16-0.23c-0.43,0-0.81,0.08-1.14,0.25s-0.58,0.39-0.77,0.69c-0.18,0.3-0.27,0.66-0.27,1.07
			c0,0.42,0.1,0.78,0.28,1.08s0.45,0.53,0.78,0.7c0.33,0.17,0.71,0.25,1.14,0.25c0.44,0,0.82-0.09,1.15-0.26
			c0.33-0.17,0.58-0.41,0.75-0.71S612.71,412.88,612.71,412.46z"/>
		<path class="st8" d="M603.9,394.27c-0.01-0.89,0.16-1.76,0.51-2.6c0.34-0.84,0.9-1.54,1.67-2.09s1.77-0.83,3.01-0.84l7.46-0.05
			l0.03,5.33l-6.6,0.04c-0.75,0-1.33,0.19-1.73,0.55c-0.4,0.36-0.6,0.84-0.6,1.44c0,0.39,0.1,0.75,0.31,1.09
			c0.2,0.34,0.48,0.61,0.85,0.81s0.78,0.3,1.26,0.3l6.54-0.04l0.03,5.31l-12.31,0.07l-0.03-5.31l1.67-0.01
			c-0.33-0.13-0.65-0.38-0.96-0.76c-0.31-0.38-0.57-0.85-0.77-1.42C604.01,395.54,603.9,394.93,603.9,394.27z"/>
	</g>
</g>
<g>
	<g>
		<path class="st8" d="M932.87,527.48l-0.03-4.28l16.46-6.78l0.03,4.64l-3.06,1.14l0.04,6.09l3.07,1.11l0.03,4.66L932.87,527.48z
			 M942.51,526.87l-0.02-3.19l-4.42,1.6v0.04L942.51,526.87z"/>
		<path class="st8" d="M949.27,511.25l0.03,4.42l-10.26,0.06l-0.03-4.42l1.51-0.01v0.06c-0.18-0.08-0.42-0.25-0.7-0.5
			c-0.29-0.25-0.54-0.61-0.78-1.07c-0.23-0.46-0.35-1.04-0.35-1.73c0-0.47,0.07-0.91,0.22-1.33c0.15-0.42,0.29-0.72,0.43-0.91
			l3.6,1.68c-0.16,0.11-0.32,0.31-0.48,0.62s-0.24,0.67-0.24,1.11c0,0.5,0.12,0.9,0.34,1.21s0.5,0.52,0.82,0.65
			c0.33,0.13,0.64,0.2,0.94,0.2L949.27,511.25z"/>
		<path class="st8" d="M949.21,500.89l0.03,4.42l-10.26,0.06l-0.03-4.42l1.51-0.01l0,0.06c-0.18-0.08-0.42-0.25-0.7-0.5
			c-0.28-0.25-0.54-0.61-0.78-1.07c-0.23-0.46-0.35-1.04-0.35-1.73c0-0.47,0.07-0.91,0.22-1.33c0.15-0.42,0.29-0.72,0.43-0.92
			l3.6,1.68c-0.16,0.11-0.32,0.31-0.48,0.62c-0.16,0.3-0.24,0.67-0.24,1.11c0,0.5,0.12,0.9,0.34,1.2c0.22,0.3,0.5,0.52,0.82,0.65
			c0.33,0.13,0.64,0.2,0.94,0.19L949.21,500.89z"/>
		<path class="st8" d="M949.43,489.1c0.01,1.15-0.22,2.17-0.67,3.07c-0.45,0.89-1.08,1.6-1.89,2.11c-0.81,0.51-1.74,0.77-2.8,0.78
			c-1.06,0.01-2-0.24-2.82-0.75c-0.82-0.5-1.47-1.2-1.95-2.09c-0.48-0.89-0.72-1.91-0.72-3.06c-0.01-1.14,0.22-2.15,0.69-3.04
			c0.47-0.88,1.11-1.57,1.93-2.07c0.82-0.5,1.76-0.76,2.81-0.76s1.99,0.24,2.81,0.73c0.82,0.49,1.46,1.17,1.92,2.05
			C949.19,486.95,949.43,487.96,949.43,489.1z M945.82,489.12c0-0.34-0.08-0.64-0.22-0.89c-0.15-0.25-0.36-0.44-0.63-0.57
			c-0.28-0.13-0.6-0.2-0.96-0.19c-0.36,0-0.67,0.07-0.95,0.21c-0.27,0.13-0.49,0.33-0.64,0.58c-0.15,0.25-0.23,0.55-0.23,0.89
			c0,0.35,0.08,0.65,0.24,0.9c0.16,0.25,0.37,0.44,0.65,0.58c0.28,0.14,0.59,0.21,0.95,0.21c0.37,0,0.69-0.08,0.96-0.22
			c0.27-0.14,0.48-0.34,0.63-0.59C945.75,489.77,945.82,489.47,945.82,489.12z"/>
		<path class="st8" d="M938.49,476.63c0-0.72,0.05-1.37,0.16-1.97c0.11-0.6,0.24-1.09,0.37-1.49s0.24-0.65,0.31-0.75l2.58,1.37
			c-0.11,0.15-0.25,0.44-0.43,0.87c-0.18,0.43-0.26,0.9-0.26,1.42c0,0.34,0.04,0.62,0.12,0.84c0.08,0.22,0.22,0.33,0.41,0.33
			c0.18,0,0.33-0.13,0.45-0.39c0.12-0.26,0.22-0.65,0.31-1.18c0.09-0.47,0.24-0.98,0.45-1.5c0.21-0.53,0.53-0.97,0.95-1.34
			c0.43-0.37,1-0.55,1.72-0.55c0.77,0,1.39,0.16,1.87,0.49c0.48,0.33,0.85,0.76,1.12,1.3c0.27,0.54,0.45,1.11,0.55,1.73
			c0.1,0.62,0.16,1.21,0.16,1.78c0,0.83-0.06,1.55-0.21,2.16c-0.14,0.61-0.3,1.1-0.48,1.46c-0.18,0.36-0.32,0.61-0.42,0.75
			l-2.87-1.34c0.17-0.22,0.37-0.57,0.59-1.06c0.22-0.49,0.33-1,0.33-1.52c0-0.47-0.06-0.82-0.16-1.05
			c-0.11-0.24-0.25-0.35-0.43-0.35c-0.14,0-0.26,0.06-0.35,0.18c-0.09,0.12-0.17,0.29-0.25,0.51c-0.07,0.22-0.14,0.51-0.21,0.85
			c-0.06,0.31-0.15,0.65-0.29,1.03c-0.14,0.38-0.33,0.73-0.58,1.07c-0.25,0.34-0.56,0.62-0.95,0.84s-0.86,0.34-1.42,0.34
			c-0.72,0-1.31-0.23-1.77-0.69c-0.46-0.46-0.81-1.06-1.05-1.8S938.5,477.46,938.49,476.63z"/>
		<path class="st8" d="M948.97,462.6l-1.54,0.01c0.16,0.08,0.39,0.27,0.68,0.56s0.57,0.67,0.81,1.15c0.24,0.48,0.36,1.04,0.37,1.68
			c0.01,1.02-0.24,1.9-0.73,2.64c-0.5,0.75-1.15,1.32-1.98,1.73c-0.82,0.41-1.72,0.62-2.68,0.62s-1.86-0.19-2.69-0.59
			s-1.5-0.97-2-1.71c-0.51-0.74-0.77-1.62-0.77-2.63c0-0.61,0.08-1.14,0.27-1.59c0.18-0.46,0.39-0.83,0.64-1.13s0.48-0.51,0.71-0.64
			l-1.34,0.01l-0.03-4.4l10.26-0.06L948.97,462.6z M943.87,466.66c0.37,0,0.7-0.09,1-0.27c0.3-0.18,0.54-0.42,0.71-0.72
			c0.17-0.3,0.26-0.64,0.26-1.03s-0.09-0.72-0.27-1.02c-0.18-0.29-0.42-0.53-0.72-0.7c-0.31-0.17-0.64-0.25-1.01-0.25
			s-0.7,0.09-1,0.26s-0.54,0.41-0.72,0.7s-0.26,0.64-0.26,1.02c0,0.38,0.09,0.72,0.27,1.02c0.18,0.3,0.42,0.54,0.73,0.71
			C943.17,466.58,943.5,466.66,943.87,466.66z"/>
		<path class="st8" d="M948.88,448.18l-1.54,0.01c0.16,0.08,0.39,0.27,0.68,0.56c0.3,0.29,0.57,0.67,0.81,1.15
			c0.24,0.48,0.36,1.04,0.37,1.68c0.01,1.02-0.24,1.9-0.73,2.64c-0.5,0.75-1.15,1.32-1.98,1.73c-0.82,0.41-1.72,0.62-2.68,0.62
			s-1.86-0.19-2.69-0.59c-0.83-0.4-1.49-0.97-2-1.71c-0.51-0.74-0.77-1.62-0.77-2.63c0-0.61,0.08-1.14,0.26-1.6s0.39-0.83,0.64-1.13
			c0.25-0.3,0.49-0.51,0.71-0.64l-1.34,0.01l-0.03-4.4l10.26-0.06L948.88,448.18z M943.78,452.24c0.37,0,0.7-0.09,1-0.27
			c0.3-0.18,0.54-0.42,0.71-0.72c0.17-0.3,0.26-0.64,0.26-1.03c0-0.38-0.09-0.72-0.27-1.02c-0.18-0.29-0.42-0.53-0.72-0.7
			c-0.3-0.17-0.64-0.25-1.01-0.25c-0.37,0-0.7,0.09-1,0.26c-0.3,0.17-0.54,0.41-0.72,0.7c-0.18,0.3-0.27,0.64-0.26,1.02
			c0,0.38,0.09,0.72,0.28,1.02c0.18,0.3,0.42,0.54,0.73,0.71S943.42,452.24,943.78,452.24z M954.4,450.42
			c0,0.68-0.05,1.39-0.16,2.11c-0.11,0.73-0.31,1.42-0.61,2.07c-0.3,0.66-0.73,1.22-1.29,1.69l-2.7-2.52
			c0.23-0.21,0.45-0.46,0.65-0.74c0.2-0.28,0.37-0.62,0.49-1.02s0.19-0.85,0.19-1.38c0-0.47-0.08-0.9-0.22-1.27
			c-0.14-0.37-0.37-0.67-0.67-0.88c-0.3-0.21-0.7-0.31-1.17-0.31l-0.23,0l-0.03-4.35l0.47,0c1.15-0.01,2.12,0.28,2.89,0.86
			c0.78,0.58,1.37,1.37,1.76,2.37S954.39,449.18,954.4,450.42z"/>
		<path class="st8" d="M944.58,437.94c0.28-0.04,0.51-0.15,0.72-0.34s0.36-0.44,0.47-0.75s0.16-0.68,0.16-1.09
			c0-0.43-0.04-0.82-0.1-1.19s-0.15-0.69-0.27-0.98c-0.12-0.29-0.23-0.52-0.36-0.69l2.75-1.64c0.15,0.17,0.32,0.45,0.49,0.82
			c0.18,0.37,0.33,0.87,0.46,1.51s0.2,1.45,0.2,2.44c0.01,1.15-0.19,2.19-0.59,3.1c-0.4,0.92-1.01,1.65-1.83,2.18
			s-1.84,0.8-3.08,0.81c-1,0.01-1.9-0.21-2.71-0.65s-1.45-1.08-1.92-1.93c-0.48-0.85-0.72-1.88-0.72-3.08
			c-0.01-1.16,0.19-2.16,0.59-3.02c0.4-0.85,1.01-1.51,1.82-1.97c0.81-0.46,1.85-0.7,3.1-0.71c0.07,0,0.2,0,0.39,0
			s0.33,0.01,0.39,0.03L944.58,437.94z M942.56,434.93c-0.28,0.01-0.52,0.07-0.74,0.18c-0.22,0.11-0.39,0.27-0.51,0.48
			c-0.12,0.21-0.19,0.46-0.18,0.77c0,0.29,0.06,0.55,0.17,0.77c0.11,0.22,0.28,0.4,0.5,0.53c0.22,0.13,0.48,0.2,0.78,0.2
			L942.56,434.93z"/>
		<path class="st8" d="M944.06,426.4c0-0.68,0.23-1.27,0.7-1.75s1.17-0.73,2.1-0.73c0.78,0,1.56,0.16,2.33,0.49
			c0.77,0.33,1.46,0.77,2.09,1.31c0.62,0.55,1.11,1.13,1.47,1.77l-1.24,1.1c-0.16-0.3-0.38-0.62-0.66-0.97
			c-0.28-0.35-0.59-0.67-0.95-0.96c-0.36-0.29-0.73-0.5-1.12-0.61c0.09,0.15,0.14,0.38,0.14,0.7c0,0.53-0.2,1.02-0.62,1.45
			c-0.41,0.44-1,0.66-1.75,0.66c-0.46,0-0.87-0.11-1.25-0.33c-0.37-0.22-0.67-0.52-0.9-0.89
			C944.18,427.25,944.06,426.84,944.06,426.4z"/>
		<path class="st8" d="M987.57,528.27l0.03,4.38l-15.46,0.09l-0.03-4.41l1.34-0.01c-0.23-0.13-0.47-0.36-0.72-0.68
			c-0.26-0.32-0.47-0.72-0.66-1.21c-0.18-0.49-0.27-1.04-0.28-1.65c-0.01-1.02,0.24-1.88,0.74-2.59c0.5-0.71,1.16-1.25,1.98-1.62
			c0.82-0.38,1.72-0.57,2.68-0.57s1.86,0.19,2.69,0.58c0.83,0.4,1.49,0.96,2,1.69c0.5,0.73,0.76,1.6,0.77,2.62
			c0,0.69-0.11,1.28-0.34,1.76c-0.24,0.48-0.5,0.86-0.79,1.13c-0.29,0.27-0.52,0.45-0.68,0.54L987.57,528.27z M977.22,524.32
			c-0.37,0-0.7,0.09-1,0.26c-0.3,0.17-0.54,0.41-0.72,0.71c-0.18,0.3-0.27,0.64-0.26,1.01c0,0.39,0.1,0.74,0.28,1.04
			c0.18,0.3,0.42,0.53,0.73,0.7c0.31,0.17,0.64,0.25,1.01,0.25c0.37,0,0.7-0.09,1-0.26c0.3-0.17,0.54-0.41,0.71-0.71
			c0.17-0.3,0.26-0.65,0.26-1.04c0-0.38-0.09-0.71-0.27-1.01c-0.18-0.3-0.42-0.53-0.72-0.7
			C977.93,524.4,977.59,524.32,977.22,524.32z"/>
		<path class="st8" d="M982.26,510.34l-1.54,0.01c0.16,0.08,0.39,0.27,0.68,0.56s0.57,0.67,0.81,1.15c0.24,0.48,0.36,1.04,0.37,1.68
			c0.01,1.02-0.24,1.9-0.73,2.64c-0.5,0.75-1.15,1.32-1.98,1.73c-0.82,0.41-1.72,0.62-2.68,0.62s-1.86-0.19-2.69-0.59
			c-0.83-0.4-1.5-0.97-2-1.71c-0.51-0.74-0.77-1.62-0.77-2.63c0-0.61,0.08-1.14,0.27-1.59s0.39-0.83,0.64-1.13
			c0.25-0.3,0.48-0.51,0.71-0.64l-1.34,0.01l-0.03-4.4l10.26-0.06L982.26,510.34z M977.16,514.39c0.37,0,0.7-0.09,1-0.27
			c0.3-0.18,0.54-0.42,0.71-0.72c0.17-0.3,0.26-0.64,0.26-1.03c0-0.38-0.09-0.72-0.27-1.02c-0.18-0.29-0.42-0.53-0.72-0.7
			s-0.64-0.25-1.01-0.25s-0.7,0.09-1,0.26c-0.3,0.17-0.54,0.41-0.72,0.7c-0.18,0.3-0.26,0.64-0.26,1.02c0,0.38,0.09,0.72,0.27,1.02
			c0.18,0.3,0.42,0.53,0.73,0.71C976.46,514.31,976.8,514.4,977.16,514.39z"/>
		<path class="st8" d="M982.2,499.78l0.03,4.42l-10.26,0.06l-0.03-4.42l1.51-0.01l0,0.06c-0.18-0.08-0.42-0.25-0.7-0.5
			c-0.28-0.25-0.54-0.61-0.77-1.07c-0.23-0.46-0.35-1.04-0.35-1.73c0-0.47,0.07-0.91,0.22-1.33c0.15-0.42,0.29-0.72,0.43-0.92
			l3.6,1.68c-0.16,0.11-0.32,0.31-0.48,0.62c-0.16,0.3-0.24,0.67-0.24,1.11c0,0.5,0.12,0.9,0.34,1.2c0.22,0.3,0.5,0.52,0.82,0.65
			c0.33,0.13,0.64,0.2,0.94,0.19L982.2,499.78z"/>
		<path class="st8" d="M978.99,487.57c0-0.4-0.08-0.74-0.23-1.01c-0.15-0.27-0.28-0.46-0.38-0.57l2.96-2.02
			c0.12,0.15,0.27,0.39,0.44,0.72c0.17,0.33,0.32,0.74,0.45,1.22c0.13,0.49,0.19,1.04,0.2,1.67c0.01,1.27-0.21,2.37-0.67,3.3
			c-0.45,0.92-1.08,1.64-1.9,2.14c-0.81,0.5-1.76,0.76-2.83,0.76c-1.08,0.01-2.03-0.24-2.85-0.73c-0.82-0.49-1.45-1.2-1.91-2.11
			c-0.46-0.92-0.69-2.01-0.7-3.29c0-0.61,0.05-1.16,0.17-1.65c0.12-0.49,0.26-0.91,0.42-1.26c0.16-0.35,0.3-0.6,0.43-0.75l3,2.03
			c-0.05,0.05-0.12,0.15-0.22,0.29c-0.09,0.14-0.18,0.32-0.25,0.53c-0.07,0.21-0.11,0.46-0.11,0.76c0,0.37,0.1,0.7,0.28,0.99
			s0.43,0.53,0.72,0.7s0.63,0.26,1,0.26c0.37,0,0.7-0.09,1-0.27c0.3-0.18,0.54-0.41,0.72-0.71
			C978.9,488.27,978.99,487.94,978.99,487.57z"/>
		<path class="st8" d="M977.39,480.12c0-0.68,0.23-1.27,0.7-1.75s1.17-0.73,2.1-0.73c0.78,0,1.56,0.16,2.33,0.49
			s1.46,0.77,2.09,1.31c0.62,0.55,1.11,1.13,1.47,1.77l-1.24,1.1c-0.16-0.3-0.38-0.62-0.66-0.97c-0.28-0.35-0.59-0.67-0.95-0.96
			c-0.36-0.29-0.73-0.5-1.12-0.61c0.09,0.15,0.14,0.38,0.14,0.7c0,0.53-0.2,1.02-0.62,1.45c-0.41,0.44-1,0.66-1.75,0.66
			c-0.46,0-0.87-0.11-1.24-0.33c-0.37-0.22-0.67-0.52-0.9-0.89C977.51,480.97,977.39,480.56,977.39,480.12z"/>
		<path class="st8" d="M970.16,466.22c0,0.67-0.23,1.25-0.7,1.72c-0.47,0.47-1.04,0.71-1.7,0.72c-0.66,0-1.23-0.23-1.72-0.7
			c-0.49-0.47-0.73-1.04-0.74-1.71c0-0.44,0.1-0.85,0.32-1.21s0.51-0.67,0.88-0.89c0.37-0.23,0.77-0.34,1.22-0.35
			c0.66,0,1.23,0.23,1.71,0.71C969.91,464.99,970.15,465.56,970.16,466.22z M982.01,468.41l-10.26,0.06l-0.03-4.41l10.26-0.06
			L982.01,468.41z"/>
		<path class="st8" d="M971.36,454.15c0-0.74,0.14-1.46,0.42-2.17c0.29-0.7,0.75-1.28,1.39-1.74s1.48-0.69,2.51-0.7l6.21-0.04
			l0.03,4.44l-5.5,0.03c-0.62,0-1.11,0.16-1.44,0.46c-0.34,0.3-0.5,0.7-0.5,1.2c0,0.33,0.09,0.63,0.26,0.91
			c0.17,0.28,0.4,0.51,0.71,0.68c0.3,0.17,0.65,0.25,1.05,0.25l5.45-0.03l0.03,4.42l-10.26,0.06l-0.03-4.42l1.39-0.01
			c-0.28-0.11-0.54-0.32-0.8-0.63c-0.26-0.31-0.47-0.71-0.64-1.18C971.45,455.22,971.36,454.7,971.36,454.15z"/>
		<path class="st8" d="M978.71,441.72c0-0.4-0.08-0.74-0.23-1.01c-0.15-0.27-0.27-0.47-0.38-0.57l2.96-2.02
			c0.13,0.15,0.27,0.39,0.44,0.72c0.17,0.33,0.32,0.74,0.45,1.22c0.13,0.49,0.19,1.04,0.2,1.67c0.01,1.27-0.21,2.37-0.67,3.3
			c-0.45,0.92-1.09,1.64-1.9,2.14c-0.81,0.5-1.76,0.75-2.83,0.76c-1.08,0.01-2.03-0.24-2.85-0.73c-0.82-0.49-1.45-1.2-1.91-2.11
			c-0.46-0.92-0.69-2.02-0.7-3.29c0-0.61,0.05-1.16,0.17-1.65c0.12-0.49,0.26-0.91,0.42-1.26c0.16-0.35,0.3-0.6,0.43-0.75l3,2.03
			c-0.05,0.05-0.12,0.15-0.22,0.29c-0.1,0.14-0.18,0.32-0.25,0.53c-0.07,0.21-0.11,0.46-0.11,0.76c0,0.37,0.1,0.7,0.28,0.99
			s0.43,0.53,0.72,0.7c0.3,0.17,0.63,0.26,1,0.26s0.7-0.09,1-0.27s0.54-0.41,0.72-0.71S978.71,442.09,978.71,441.72z"/>
		<path class="st8" d="M977.55,433.15c0.27-0.04,0.51-0.15,0.72-0.34c0.2-0.19,0.36-0.44,0.47-0.75c0.11-0.31,0.16-0.68,0.16-1.09
			c0-0.43-0.04-0.82-0.1-1.19c-0.06-0.37-0.15-0.69-0.27-0.98c-0.11-0.29-0.23-0.52-0.36-0.69l2.75-1.64
			c0.15,0.17,0.32,0.45,0.49,0.82c0.18,0.37,0.33,0.87,0.46,1.51s0.2,1.45,0.2,2.44c0.01,1.15-0.19,2.18-0.59,3.1
			c-0.4,0.92-1.01,1.65-1.83,2.18c-0.82,0.54-1.84,0.8-3.08,0.81c-1,0.01-1.9-0.21-2.71-0.65c-0.81-0.44-1.45-1.08-1.92-1.93
			c-0.48-0.85-0.72-1.87-0.73-3.08c-0.01-1.16,0.19-2.16,0.59-3.02s1-1.51,1.82-1.97c0.81-0.46,1.85-0.7,3.1-0.71
			c0.07,0,0.2,0,0.39,0c0.2,0,0.33,0.01,0.39,0.03L977.55,433.15z M975.54,430.14c-0.28,0.01-0.52,0.07-0.74,0.19
			c-0.22,0.11-0.39,0.27-0.51,0.48c-0.12,0.21-0.18,0.46-0.18,0.77c0,0.29,0.06,0.55,0.17,0.77c0.12,0.22,0.28,0.4,0.5,0.53
			c0.22,0.13,0.48,0.2,0.78,0.2L975.54,430.14z"/>
		<path class="st8" d="M971.13,416.64c0-0.74,0.14-1.46,0.42-2.16c0.29-0.7,0.75-1.28,1.39-1.74c0.64-0.46,1.47-0.69,2.51-0.7
			l6.21-0.04l0.03,4.44l-5.5,0.03c-0.62,0-1.11,0.16-1.44,0.46c-0.34,0.3-0.5,0.7-0.5,1.2c0,0.32,0.09,0.63,0.25,0.91
			c0.17,0.28,0.4,0.51,0.71,0.68c0.3,0.17,0.65,0.25,1.05,0.25l5.45-0.03l0.03,4.42l-10.26,0.06l-0.03-4.42l1.39-0.01
			c-0.28-0.11-0.54-0.32-0.8-0.63c-0.26-0.32-0.47-0.71-0.64-1.18S971.13,417.19,971.13,416.64z"/>
		<path class="st8" d="M981.92,405.69c0.01,1.02-0.24,1.89-0.73,2.62s-1.15,1.29-1.98,1.69c-0.82,0.4-1.72,0.6-2.68,0.61
			s-1.86-0.19-2.69-0.58s-1.5-0.95-2-1.67s-0.77-1.59-0.77-2.61c0-0.62,0.08-1.17,0.26-1.65c0.18-0.48,0.39-0.88,0.64-1.18
			c0.25-0.31,0.49-0.5,0.71-0.59l-8.28,0.05l-0.03-4.41l17.2-0.1l0.03,4.38l-1.54,0.01c0.33,0.19,0.63,0.46,0.91,0.81
			c0.28,0.35,0.51,0.75,0.68,1.21C981.83,404.73,981.92,405.2,981.92,405.69z M978.48,404.3c0-0.39-0.09-0.74-0.27-1.04
			s-0.42-0.53-0.72-0.7s-0.64-0.25-1.01-0.25c-0.37,0-0.7,0.09-1,0.26s-0.54,0.41-0.72,0.71s-0.27,0.65-0.26,1.04
			c0,0.38,0.09,0.71,0.27,1.01c0.18,0.3,0.42,0.53,0.73,0.7c0.3,0.17,0.64,0.25,1.01,0.25c0.37,0,0.7-0.09,1-0.26
			c0.3-0.17,0.54-0.41,0.71-0.71C978.39,405.01,978.48,404.67,978.48,404.3z"/>
		<path class="st8" d="M969.71,393.46c0,0.67-0.23,1.25-0.7,1.72c-0.47,0.47-1.04,0.71-1.7,0.72s-1.23-0.23-1.72-0.7
			c-0.49-0.47-0.73-1.04-0.74-1.71c0-0.44,0.1-0.85,0.32-1.21c0.22-0.37,0.51-0.67,0.88-0.89c0.37-0.23,0.77-0.34,1.22-0.34
			c0.66,0,1.23,0.23,1.7,0.71S969.71,392.8,969.71,393.46z M981.56,395.65l-10.26,0.06l-0.03-4.41l10.26-0.06L981.56,395.65z"/>
		<path class="st8" d="M977.26,385.24c0.28-0.03,0.51-0.15,0.72-0.33s0.36-0.44,0.47-0.75s0.16-0.68,0.16-1.09
			c0-0.42-0.04-0.82-0.1-1.19s-0.15-0.69-0.27-0.98c-0.12-0.29-0.23-0.52-0.36-0.69l2.75-1.64c0.15,0.17,0.32,0.45,0.49,0.82
			c0.18,0.37,0.33,0.87,0.46,1.51c0.13,0.64,0.2,1.45,0.2,2.44c0.01,1.15-0.19,2.18-0.59,3.1c-0.4,0.92-1.01,1.65-1.83,2.18
			c-0.82,0.53-1.84,0.8-3.08,0.81c-1,0.01-1.9-0.21-2.71-0.65c-0.81-0.44-1.45-1.08-1.92-1.93c-0.48-0.85-0.72-1.88-0.72-3.08
			c-0.01-1.16,0.19-2.16,0.59-3.02c0.4-0.85,1.01-1.51,1.82-1.97c0.81-0.46,1.85-0.7,3.1-0.71c0.07,0,0.2,0,0.39,0
			s0.33,0.01,0.39,0.03L977.26,385.24z M975.24,382.23c-0.28,0.01-0.52,0.07-0.74,0.19s-0.39,0.27-0.51,0.48
			c-0.12,0.21-0.19,0.46-0.18,0.77c0,0.29,0.06,0.55,0.17,0.77c0.11,0.22,0.28,0.4,0.5,0.53c0.22,0.13,0.48,0.2,0.78,0.2
			L975.24,382.23z"/>
	</g>
</g>
<g>
	<g>
		<path class="st8" d="M763.6,530.82l-0.05-7.8c-0.01-1.28,0.21-2.44,0.67-3.48c0.45-1.04,1.14-1.86,2.05-2.48
			c0.92-0.62,2.05-0.93,3.42-0.94c1.35-0.01,2.51,0.29,3.47,0.89c0.96,0.6,1.7,1.42,2.22,2.45c0.52,1.03,0.78,2.19,0.79,3.47
			l0.02,2.58l7.19-0.04l0.03,5.22L763.6,530.82z M772.1,525.55l-0.01-1.12c0-0.52-0.08-0.98-0.23-1.39
			c-0.15-0.4-0.39-0.73-0.72-0.96c-0.33-0.24-0.75-0.36-1.28-0.35c-0.54,0-0.97,0.13-1.3,0.37c-0.32,0.24-0.56,0.57-0.71,0.97
			c-0.15,0.41-0.22,0.87-0.22,1.39l0.01,1.12L772.1,525.55z"/>
		<path class="st8" d="M783.27,508.86l0.03,5.31l-12.32,0.08l-0.03-5.31l1.82-0.01V509c-0.22-0.1-0.5-0.3-0.84-0.6
			s-0.65-0.73-0.93-1.29c-0.28-0.55-0.42-1.24-0.42-2.07c0-0.56,0.08-1.09,0.26-1.59c0.18-0.5,0.35-0.87,0.52-1.1l4.32,2.01
			c-0.19,0.13-0.38,0.38-0.57,0.74c-0.19,0.36-0.29,0.81-0.28,1.34c0,0.6,0.14,1.08,0.41,1.45c0.27,0.36,0.6,0.62,0.99,0.78
			c0.39,0.16,0.77,0.24,1.13,0.23L783.27,508.86z"/>
		<path class="st8" d="M783.54,494.71c0.01,1.38-0.26,2.61-0.8,3.68c-0.54,1.07-1.3,1.92-2.27,2.53c-0.97,0.62-2.09,0.93-3.36,0.94
			c-1.27,0.01-2.4-0.29-3.39-0.89s-1.77-1.44-2.34-2.51c-0.57-1.07-0.86-2.29-0.87-3.67c-0.01-1.37,0.27-2.58,0.82-3.64
			c0.56-1.06,1.33-1.89,2.31-2.49c0.98-0.6,2.11-0.91,3.38-0.91s2.39,0.28,3.37,0.87s1.75,1.41,2.3,2.46
			S783.53,493.34,783.54,494.71z M779.21,494.74c0-0.41-0.09-0.76-0.27-1.06s-0.43-0.53-0.76-0.69s-0.72-0.24-1.16-0.23
			c-0.43,0-0.81,0.08-1.14,0.25s-0.58,0.39-0.77,0.7s-0.27,0.66-0.27,1.07c0,0.42,0.1,0.78,0.28,1.08c0.19,0.3,0.45,0.53,0.78,0.7
			c0.33,0.17,0.71,0.25,1.14,0.25c0.44,0,0.82-0.09,1.15-0.26c0.33-0.17,0.58-0.41,0.75-0.71
			C779.12,495.52,779.21,495.16,779.21,494.74z"/>
		<path class="st8" d="M783.45,480.33c0.01,1.22-0.29,2.27-0.88,3.14c-0.59,0.87-1.39,1.55-2.37,2.03
			c-0.99,0.48-2.06,0.72-3.22,0.73s-2.24-0.22-3.23-0.69c-0.99-0.47-1.79-1.13-2.41-2c-0.61-0.87-0.92-1.91-0.93-3.13
			c0-0.74,0.1-1.4,0.31-1.98c0.21-0.58,0.47-1.05,0.77-1.42s0.59-0.6,0.86-0.7l-9.93,0.06l-0.03-5.29l20.64-0.13l0.03,5.25
			l-1.85,0.01c0.39,0.23,0.76,0.55,1.09,0.98c0.34,0.42,0.61,0.91,0.82,1.45C783.34,479.17,783.45,479.74,783.45,480.33z
			 M779.32,478.66c0-0.47-0.11-0.88-0.32-1.24c-0.21-0.36-0.5-0.64-0.87-0.84c-0.37-0.2-0.77-0.3-1.21-0.3
			c-0.44,0-0.84,0.11-1.21,0.31c-0.36,0.21-0.65,0.49-0.87,0.85c-0.21,0.36-0.32,0.78-0.31,1.25c0,0.45,0.11,0.85,0.33,1.21
			c0.22,0.36,0.51,0.64,0.88,0.84c0.37,0.2,0.77,0.3,1.21,0.3c0.44,0,0.84-0.11,1.21-0.31s0.65-0.49,0.86-0.85
			C779.22,479.51,779.32,479.11,779.32,478.66z"/>
		<path class="st8" d="M776.18,463.41c0.86,0,1.55-0.16,2.06-0.46c0.51-0.3,0.77-0.84,0.76-1.61c0-0.78-0.27-1.32-0.78-1.62
			c-0.52-0.3-1.2-0.44-2.06-0.44l-5.5,0.03l-0.03-5.22l6.04-0.04c1.36-0.01,2.54,0.27,3.54,0.83c1,0.56,1.77,1.39,2.31,2.47
			c0.54,1.08,0.82,2.4,0.83,3.95c0.01,1.54-0.25,2.85-0.78,3.93s-1.29,1.92-2.28,2.5c-0.99,0.58-2.17,0.88-3.53,0.88l-6.04,0.04
			l-0.03-5.22L776.18,463.41z"/>
		<path class="st8" d="M779.11,444.53c0-0.48-0.09-0.88-0.27-1.21c-0.18-0.33-0.33-0.56-0.46-0.69l3.56-2.42
			c0.15,0.18,0.33,0.47,0.53,0.86s0.38,0.88,0.53,1.47c0.15,0.58,0.23,1.25,0.24,2c0.01,1.53-0.26,2.85-0.8,3.96
			c-0.54,1.11-1.3,1.96-2.28,2.56c-0.98,0.6-2.11,0.91-3.4,0.91c-1.3,0.01-2.44-0.28-3.42-0.87s-1.74-1.43-2.29-2.54
			s-0.83-2.42-0.84-3.95c0-0.73,0.06-1.39,0.21-1.98s0.31-1.09,0.5-1.51s0.36-0.71,0.51-0.9l3.6,2.44
			c-0.06,0.06-0.15,0.18-0.26,0.35c-0.11,0.17-0.22,0.38-0.3,0.64c-0.09,0.26-0.13,0.56-0.13,0.91c0,0.44,0.11,0.84,0.34,1.19
			c0.22,0.35,0.51,0.63,0.87,0.84c0.36,0.21,0.75,0.31,1.19,0.31c0.44,0,0.84-0.11,1.2-0.32c0.36-0.21,0.65-0.5,0.86-0.85
			C779,445.37,779.11,444.97,779.11,444.53z"/>
		<path class="st8" d="M770.53,439.75l-0.01-1.98l-5.05,0.03l-0.03-5.25l5.06-0.03l-0.02-2.61l4.33-0.03l0.02,2.61l2.4-0.01
			c0.43,0,0.8-0.06,1.1-0.18c0.3-0.12,0.46-0.37,0.45-0.75c0-0.23-0.05-0.43-0.16-0.61c-0.11-0.18-0.18-0.29-0.22-0.33l3.74-1.79
			c0.06,0.08,0.17,0.32,0.34,0.72c0.17,0.4,0.32,0.91,0.47,1.53c0.14,0.61,0.22,1.3,0.22,2.05c0.01,1.33-0.35,2.43-1.08,3.29
			c-0.73,0.86-1.86,1.3-3.39,1.31l-3.84,0.02l0.01,1.98L770.53,439.75z"/>
		<path class="st8" d="M768.54,424.63c0.01,0.81-0.28,1.5-0.84,2.07s-1.25,0.86-2.04,0.86c-0.79,0-1.48-0.27-2.06-0.84
			c-0.58-0.56-0.88-1.25-0.88-2.06c0-0.53,0.13-1.02,0.39-1.46s0.61-0.8,1.05-1.07c0.44-0.27,0.93-0.41,1.47-0.41
			c0.79,0,1.47,0.28,2.04,0.85S768.54,423.83,768.54,424.63z M782.77,427.26l-12.31,0.08l-0.03-5.29l12.31-0.08L782.77,427.26z"/>
		<path class="st8" d="M783.04,412.65c0.01,1.38-0.26,2.61-0.8,3.68s-1.3,1.92-2.27,2.53c-0.97,0.62-2.09,0.93-3.36,0.94
			c-1.27,0.01-2.4-0.29-3.39-0.89s-1.77-1.44-2.34-2.51c-0.57-1.07-0.86-2.29-0.87-3.67c-0.01-1.37,0.27-2.58,0.82-3.64
			c0.56-1.06,1.33-1.89,2.31-2.49c0.98-0.6,2.11-0.91,3.38-0.91s2.39,0.28,3.37,0.87s1.75,1.41,2.3,2.46
			S783.03,411.28,783.04,412.65z M778.7,412.68c0-0.41-0.09-0.76-0.27-1.06c-0.18-0.3-0.43-0.53-0.76-0.69
			c-0.33-0.16-0.72-0.23-1.16-0.23c-0.43,0-0.81,0.09-1.14,0.25c-0.33,0.16-0.58,0.39-0.77,0.69c-0.18,0.3-0.27,0.66-0.27,1.07
			c0,0.42,0.1,0.78,0.28,1.08c0.19,0.3,0.45,0.53,0.78,0.7s0.71,0.25,1.14,0.25c0.44,0,0.82-0.09,1.15-0.26s0.58-0.41,0.75-0.71
			C778.62,413.46,778.71,413.1,778.7,412.68z"/>
		<path class="st8" d="M769.89,394.49c0-0.89,0.16-1.76,0.51-2.6c0.34-0.84,0.9-1.54,1.67-2.09c0.77-0.55,1.77-0.83,3.01-0.84
			l7.46-0.05l0.03,5.33l-6.6,0.04c-0.75,0-1.33,0.19-1.73,0.55c-0.4,0.36-0.6,0.84-0.6,1.44c0,0.39,0.1,0.75,0.31,1.09
			s0.48,0.61,0.85,0.81c0.36,0.2,0.78,0.3,1.26,0.3l6.54-0.04l0.03,5.31l-12.32,0.08l-0.03-5.31l1.67-0.01
			c-0.33-0.13-0.65-0.38-0.96-0.76s-0.57-0.85-0.77-1.42C770,395.76,769.89,395.15,769.89,394.49z"/>
		<path class="st8" d="M802.18,527.7c0,0.81-0.28,1.5-0.84,2.07c-0.57,0.57-1.24,0.86-2.03,0.86c-0.79,0.01-1.48-0.27-2.06-0.83
			c-0.58-0.56-0.88-1.25-0.88-2.06c0-0.53,0.13-1.02,0.39-1.46c0.26-0.44,0.61-0.8,1.05-1.07c0.44-0.27,0.93-0.41,1.47-0.41
			c0.79-0.01,1.47,0.28,2.05,0.85C801.88,526.22,802.17,526.9,802.18,527.7z M816.4,530.33l-12.31,0.07l-0.03-5.29l12.31-0.07
			L816.4,530.33z"/>
		<path class="st8" d="M803.62,513.22c0-0.89,0.16-1.76,0.51-2.6c0.35-0.84,0.9-1.54,1.67-2.09c0.77-0.55,1.77-0.83,3.01-0.84
			l7.45-0.04l0.03,5.32l-6.6,0.04c-0.75,0-1.33,0.19-1.73,0.55c-0.4,0.36-0.6,0.84-0.6,1.44c0,0.39,0.1,0.75,0.31,1.09
			s0.48,0.61,0.85,0.81c0.36,0.2,0.78,0.3,1.26,0.3l6.54-0.04l0.03,5.31l-12.31,0.08l-0.03-5.31l1.67-0.01
			c-0.33-0.13-0.65-0.38-0.96-0.76c-0.31-0.38-0.57-0.85-0.77-1.42C803.73,514.49,803.62,513.88,803.62,513.22z"/>
		<path class="st8" d="M816.57,500.07c0.01,1.22-0.29,2.27-0.88,3.14c-0.59,0.88-1.38,1.55-2.37,2.03
			c-0.99,0.48-2.06,0.72-3.22,0.73c-1.16,0.01-2.24-0.22-3.23-0.69s-1.79-1.14-2.41-2s-0.92-1.91-0.93-3.13
			c0-0.74,0.1-1.4,0.31-1.98c0.21-0.58,0.47-1.06,0.77-1.42c0.3-0.37,0.59-0.6,0.86-0.7l-9.93,0.06l-0.03-5.29l20.64-0.13l0.03,5.25
			l-1.85,0.01c0.39,0.23,0.76,0.55,1.09,0.97c0.34,0.42,0.61,0.91,0.82,1.45C816.46,498.92,816.57,499.48,816.57,500.07z
			 M812.44,498.4c0-0.47-0.11-0.88-0.32-1.24c-0.21-0.36-0.5-0.64-0.87-0.84c-0.37-0.2-0.77-0.3-1.21-0.3
			c-0.44,0-0.84,0.11-1.21,0.32c-0.36,0.21-0.65,0.49-0.86,0.85s-0.32,0.78-0.31,1.25c0,0.45,0.11,0.85,0.33,1.21
			c0.22,0.36,0.51,0.64,0.88,0.84c0.37,0.2,0.77,0.3,1.21,0.3c0.44,0,0.84-0.11,1.21-0.32c0.36-0.21,0.65-0.49,0.86-0.85
			C812.34,499.26,812.44,498.85,812.44,498.4z"/>
		<path class="st8" d="M809.3,483.15c0.86,0,1.55-0.16,2.06-0.46c0.51-0.3,0.77-0.84,0.76-1.61c0-0.78-0.26-1.32-0.78-1.62
			c-0.52-0.3-1.21-0.44-2.07-0.44l-5.5,0.03l-0.03-5.22l6.04-0.04c1.36-0.01,2.54,0.27,3.54,0.83c1,0.56,1.77,1.39,2.31,2.47
			c0.54,1.08,0.82,2.4,0.83,3.95c0.01,1.54-0.25,2.85-0.78,3.93c-0.53,1.08-1.29,1.92-2.28,2.5c-0.99,0.58-2.17,0.88-3.53,0.88
			l-6.04,0.04l-0.03-5.22L809.3,483.15z"/>
		<path class="st8" d="M803.33,465.47c-0.01-0.86,0.06-1.65,0.2-2.36s0.28-1.31,0.45-1.79s0.29-0.77,0.38-0.89l3.1,1.65
			c-0.13,0.18-0.3,0.53-0.51,1.04c-0.21,0.52-0.32,1.08-0.31,1.71c0,0.41,0.05,0.75,0.15,1.01c0.1,0.26,0.26,0.4,0.49,0.39
			c0.22,0,0.4-0.16,0.55-0.47c0.14-0.31,0.27-0.78,0.37-1.41c0.11-0.57,0.29-1.17,0.54-1.8s0.63-1.17,1.15-1.6
			c0.51-0.44,1.2-0.66,2.06-0.67c0.92,0,1.67,0.19,2.25,0.59c0.58,0.4,1.03,0.92,1.34,1.56c0.32,0.64,0.54,1.34,0.67,2.08
			c0.12,0.75,0.19,1.46,0.19,2.14c0.01,1-0.08,1.87-0.25,2.6c-0.17,0.73-0.36,1.32-0.58,1.75c-0.22,0.44-0.38,0.74-0.5,0.9
			l-3.45-1.61c0.21-0.26,0.45-0.68,0.71-1.27c0.27-0.59,0.4-1.19,0.39-1.82c0-0.56-0.07-0.98-0.2-1.27s-0.3-0.43-0.52-0.42
			c-0.17,0-0.31,0.07-0.42,0.21c-0.11,0.14-0.21,0.35-0.3,0.62c-0.09,0.27-0.17,0.61-0.25,1.02c-0.07,0.37-0.18,0.78-0.35,1.23
			s-0.39,0.88-0.69,1.29c-0.3,0.41-0.68,0.75-1.14,1.01c-0.46,0.27-1.03,0.4-1.7,0.41c-0.86,0-1.57-0.27-2.13-0.83
			s-0.98-1.28-1.26-2.16C803.48,467.4,803.33,466.46,803.33,465.47z"/>
		<path class="st8" d="M803.65,459.19l-0.01-1.98l-5.05,0.03l-0.03-5.25l5.05-0.03l-0.02-2.61l4.33-0.03l0.02,2.61l2.4-0.02
			c0.43,0,0.8-0.06,1.1-0.18c0.3-0.12,0.46-0.37,0.45-0.74c0-0.23-0.06-0.44-0.16-0.62c-0.11-0.18-0.18-0.29-0.22-0.33l3.74-1.79
			c0.06,0.08,0.17,0.32,0.34,0.72c0.17,0.4,0.32,0.91,0.47,1.53s0.22,1.3,0.22,2.05c0.01,1.33-0.35,2.43-1.08,3.29
			c-0.73,0.86-1.86,1.3-3.39,1.31l-3.84,0.02l0.01,1.98L803.65,459.19z"/>
		<path class="st8" d="M815.86,442.01l0.03,5.31l-12.31,0.08l-0.03-5.31l1.82-0.01v0.08c-0.22-0.1-0.5-0.3-0.84-0.6
			c-0.34-0.3-0.65-0.73-0.93-1.28c-0.28-0.55-0.42-1.25-0.42-2.08c0-0.56,0.08-1.09,0.26-1.59c0.18-0.5,0.35-0.87,0.52-1.1
			l4.32,2.01c-0.19,0.13-0.38,0.38-0.57,0.74c-0.19,0.36-0.29,0.81-0.28,1.34c0,0.6,0.14,1.08,0.41,1.44s0.6,0.62,0.99,0.78
			c0.39,0.16,0.77,0.24,1.13,0.23L815.86,442.01z"/>
		<path class="st8" d="M801.59,431.63c0,0.81-0.28,1.5-0.84,2.07s-1.25,0.86-2.04,0.86s-1.48-0.27-2.06-0.83
			c-0.58-0.56-0.88-1.25-0.88-2.06c0-0.53,0.13-1.02,0.39-1.46c0.26-0.44,0.61-0.8,1.05-1.07c0.44-0.27,0.93-0.41,1.47-0.41
			c0.79,0,1.47,0.28,2.05,0.85S801.58,430.83,801.59,431.63z M815.81,434.26l-12.31,0.08l-0.03-5.29l12.31-0.08L815.81,434.26z"/>
		<path class="st8" d="M810.65,421.76c0.33-0.04,0.62-0.18,0.86-0.4c0.24-0.23,0.43-0.53,0.56-0.9s0.2-0.81,0.19-1.31
			c0-0.51-0.04-0.98-0.12-1.42s-0.19-0.83-0.32-1.18s-0.28-0.62-0.43-0.83l3.3-1.97c0.18,0.21,0.38,0.54,0.59,0.98
			c0.21,0.44,0.4,1.05,0.55,1.81c0.16,0.76,0.24,1.74,0.24,2.93c0.01,1.38-0.23,2.62-0.71,3.72c-0.48,1.1-1.21,1.98-2.2,2.62
			c-0.98,0.64-2.21,0.97-3.69,0.97c-1.2,0.01-2.28-0.25-3.25-0.78c-0.97-0.53-1.74-1.3-2.31-2.32c-0.57-1.02-0.86-2.25-0.87-3.7
			c-0.01-1.39,0.23-2.6,0.71-3.62s1.21-1.81,2.18-2.37s2.21-0.84,3.71-0.85c0.08,0,0.24,0,0.47,0c0.24,0,0.39,0.01,0.47,0.03
			L810.65,421.76z M808.23,418.15c-0.33,0.01-0.62,0.09-0.88,0.22c-0.26,0.14-0.46,0.33-0.61,0.57c-0.15,0.25-0.22,0.55-0.22,0.92
			c0,0.35,0.07,0.66,0.21,0.93s0.33,0.48,0.6,0.63c0.26,0.15,0.57,0.23,0.93,0.24L808.23,418.15z"/>
		<path class="st8" d="M815.63,405.69l0.03,5.32l-20.64,0.13l-0.03-5.32L815.63,405.69z"/>
		<path class="st8" d="M815.59,397.79l0.03,5.33l-20.64,0.13l-0.03-5.32L815.59,397.79z"/>
		<path class="st8" d="M810.46,390.79c0.33-0.04,0.62-0.18,0.86-0.4s0.43-0.53,0.56-0.9s0.2-0.81,0.19-1.31
			c0-0.51-0.04-0.98-0.12-1.42s-0.19-0.83-0.32-1.18c-0.14-0.34-0.28-0.62-0.43-0.83l3.3-1.97c0.18,0.21,0.38,0.54,0.59,0.98
			c0.21,0.44,0.4,1.05,0.55,1.81c0.16,0.76,0.24,1.74,0.24,2.93c0.01,1.38-0.23,2.62-0.71,3.72c-0.48,1.1-1.22,1.98-2.2,2.62
			s-2.21,0.97-3.69,0.97c-1.2,0.01-2.28-0.25-3.25-0.78c-0.97-0.53-1.74-1.3-2.31-2.32c-0.57-1.02-0.86-2.25-0.87-3.7
			c-0.01-1.39,0.23-2.6,0.71-3.62c0.48-1.02,1.21-1.81,2.18-2.37c0.98-0.56,2.22-0.84,3.72-0.85c0.08,0,0.24,0,0.47,0
			c0.24,0,0.39,0.02,0.47,0.04L810.46,390.79z M808.04,387.18c-0.33,0.01-0.62,0.09-0.88,0.22c-0.26,0.14-0.46,0.33-0.61,0.57
			c-0.15,0.25-0.22,0.55-0.22,0.92c0,0.35,0.07,0.66,0.21,0.93c0.14,0.27,0.34,0.48,0.6,0.63c0.26,0.15,0.57,0.23,0.93,0.24
			L808.04,387.18z"/>
	</g>
</g>
</svg>
