<svg width="131" height="64" viewBox="0 0 131 64" fill="none" xmlns="http://www.w3.org/2000/svg">
<path d="M116.999 64H15.1756C0.920277 62.2037 -0.734357 49.3516 0.22024 43.15C2.76583 25.9569 17.6151 26.1493 24.7216 28.3947C25.4852 20.4397 33.3129 19.3063 37.1313 19.734C37.1313 8.18633 41.1618 3.48173 43.8135 2.09173C52.7231 -3.04056 62.5872 2.41249 65.7692 6.26172C68.4209 5.08557 75.5061 3.11819 82.6338 4.65788C89.7614 6.19756 94.5132 15.1363 95.9981 19.4132C106.69 18.9 108.938 27.1117 108.726 31.2817C125.591 25.8286 131 42.5085 131 46.3578C129.982 60.4716 121.242 64 116.999 64Z" fill="white"/>
</svg>
