<svg width="1440" height="176" viewBox="0 0 1440 176" fill="none" xmlns="http://www.w3.org/2000/svg">
<path fill-rule="evenodd" clip-rule="evenodd" d="M-20 144.41L11.8125 132.376C43.625 120.342 107.25 96.2735 170.875 102.291C234.5 108.308 298.125 144.41 361.75 162.462C425.375 180.513 489 180.513 552.625 162.462C616.25 144.41 679.875 108.308 743.5 78.2222C807.125 48.1367 870.75 24.0684 934.375 48.1367C998 72.2051 1061.62 144.41 1125.25 156.444C1188.88 168.479 1252.5 120.342 1316.12 84.2393C1379.75 48.1367 1443.38 24.0684 1475.19 12.0342L1507 0H1475.19C1443.38 0 1379.75 0 1316.12 0C1252.5 0 1188.88 0 1125.25 0C1061.62 0 998 0 934.375 0C870.75 0 807.125 0 743.5 0C679.875 0 616.25 0 552.625 0C489 0 425.375 0 361.75 0C298.125 0 234.5 0 170.875 0C107.25 0 43.625 0 11.8125 0H-20V144.41Z" fill="#DAF2FF"/>
</svg>
