<svg width="1440" height="176" viewBox="0 0 1440 176" fill="none" xmlns="http://www.w3.org/2000/svg">
<path fill-rule="evenodd" clip-rule="evenodd" d="M-12 144.41L19.8125 132.376C51.625 120.342 115.25 96.2735 178.875 102.291C242.5 108.308 306.125 144.41 369.75 162.462C433.375 180.513 497 180.513 560.625 162.462C624.25 144.41 687.875 108.308 751.5 78.2222C815.125 48.1367 878.75 24.0684 942.375 48.1367C1006 72.2051 1069.62 144.41 1133.25 156.444C1196.88 168.479 1260.5 120.342 1324.12 84.2393C1387.75 48.1367 1451.38 24.0684 1483.19 12.0342L1515 0H1483.19C1451.38 0 1387.75 0 1324.12 0C1260.5 0 1196.88 0 1133.25 0C1069.62 0 1006 0 942.375 0C878.75 0 815.125 0 751.5 0C687.875 0 624.25 0 560.625 0C497 0 433.375 0 369.75 0C306.125 0 242.5 0 178.875 0C115.25 0 51.625 0 19.8125 0H-12V144.41Z" fill="#DAF2FF"/>
</svg>
