<svg width="1431" height="223" viewBox="0 0 1431 223" fill="none" xmlns="http://www.w3.org/2000/svg">
<path fill-rule="evenodd" clip-rule="evenodd" d="M-9 72.0146L17.4 90.0182C43.8 108.022 97.8 144.029 150.6 174.035C204.6 204.041 257.4 228.046 311.4 210.042C364.2 192.039 418.2 132.027 471 108.022C523.8 84.017 577.8 96.0194 630.6 96.0194C684.6 96.0194 737.4 84.017 791.4 102.021C844.2 120.024 898.2 168.034 951 186.038C1003.8 204.041 1057.8 192.039 1110.6 198.04C1164.6 204.041 1217.4 228.046 1271.4 222.045C1324.2 216.044 1378.2 180.036 1404.6 162.033L1431 144.029V0H1404.6C1378.2 0 1324.2 0 1271.4 0C1217.4 0 1164.6 0 1110.6 0C1057.8 0 1003.8 0 951 0C898.2 0 844.2 0 791.4 0C737.4 0 684.6 0 630.6 0C577.8 0 523.8 0 471 0C418.2 0 364.2 0 311.4 0C257.4 0 204.6 0 150.6 0C97.8 0 43.8 0 17.4 0H-9V72.0146Z" fill="#CFC3A5"/>
</svg>
