<svg width="1440" height="354" viewBox="0 0 1440 354" fill="none" xmlns="http://www.w3.org/2000/svg">
<path fill-rule="evenodd" clip-rule="evenodd" d="M-10 38.1362L2.19167 31.928C14.3833 25.7198 38.7667 13.3033 63.15 6.20823C87.5333 0 111.917 0 136.3 6.20823C160.683 13.3033 185.067 25.7198 209.45 70.0643C233.833 115.296 258.217 191.568 282.6 211.08C306.983 229.704 331.367 191.568 355.75 165.848C380.133 141.015 404.517 127.712 428.9 127.712C453.283 127.712 477.667 141.015 502.05 159.64C526.433 179.152 550.817 204.871 575.2 223.496C599.583 243.008 623.967 255.424 648.35 268.728C672.733 281.144 697.117 293.56 721.5 249.216C745.883 204.871 770.267 101.992 794.65 83.3676C819.033 63.856 843.417 127.712 867.8 147.224C892.183 165.848 916.567 141.015 940.95 109.087C965.333 77.1594 1038.5 214.5 1075.5 256C1099 296 1126.12 226.072 1150.5 258C1174.88 289.928 1200.12 217.288 1224.5 223.496C1248.88 229.704 1239.62 233 1264 233C1288.38 233 1337.12 220.584 1361.5 233C1385.88 246.303 1383.12 170.428 1407.5 138.5C1431.88 106.572 1428.62 51.4396 1440.81 25.7198L1453 0V345H1440.81C1428.62 345 1404.23 345 1379.85 345C1355.47 345 1331.08 345 1306.7 345C1282.32 345 1257.93 345 1233.55 345C1209.17 345 1194.88 354 1170.5 354C1146.12 354 1108.88 345 1084.5 345C1060.12 345 1038.48 345 1014.1 345C989.717 345 965.333 345 940.95 345C916.567 345 892.183 345 867.8 345C843.417 345 819.033 345 794.65 345C770.267 345 745.883 345 721.5 345C697.117 345 672.733 345 648.35 345C623.967 345 599.583 345 575.2 345C550.817 345 526.433 345 502.05 345C477.667 345 453.283 345 428.9 345C404.517 345 380.133 345 355.75 345C331.367 345 306.983 345 282.6 345C258.217 345 233.833 345 209.45 345C185.067 345 160.683 345 136.3 345C111.917 345 87.5333 345 63.15 345C38.7667 345 14.3833 345 2.19167 345H-10V38.1362Z" fill="#1A759F"/>
</svg>
