<svg width="1124" height="118" viewBox="0 0 1124 118" fill="none" xmlns="http://www.w3.org/2000/svg">
<path fill-rule="evenodd" clip-rule="evenodd" d="M0 21.5044L23.4167 30.6944C46.8333 39.8845 93.6667 58.2646 140.5 51.3721C187.333 44.4795 234.167 12.3143 281 3.12426C327.833 -6.0658 374.667 7.71929 421.5 10.0168C468.333 12.3143 515.167 3.12426 562 7.71929C608.833 12.3143 655.667 30.6944 702.5 46.777C749.333 62.8596 796.167 76.6447 843 76.6447C889.833 76.6447 936.667 62.8596 983.5 60.5621C1030.33 58.2646 1077.17 67.4547 1100.58 72.0497L1124 76.6447V118H1100.58C1077.17 118 1030.33 118 983.5 118C936.667 118 889.833 118 843 118C796.167 118 749.333 118 702.5 118C655.667 118 608.833 118 562 118C515.167 118 468.333 118 421.5 118C374.667 118 327.833 118 281 118C234.167 118 187.333 118 140.5 118C93.6667 118 46.8333 118 23.4167 118H0V21.5044Z" fill="#736052"/>
</svg>
